<svg width="40" height="40" viewBox="0 0 40 40" fill="none" xmlns="http://www.w3.org/2000/svg">
<path d="M11.6668 18.3333L18.3335 3.33334C19.6596 3.33334 20.9313 3.86013 21.869 4.79781C22.8067 5.73549 23.3335 7.00726 23.3335 8.33334V15H32.7668C33.25 14.9945 33.7286 15.0942 34.1694 15.292C34.6103 15.4899 35.0029 15.7812 35.3199 16.1459C35.637 16.5105 35.871 16.9397 36.0057 17.4038C36.1405 17.8678 36.1727 18.3556 36.1002 18.8333L33.8002 33.8333C33.6796 34.6282 33.2759 35.3527 32.6633 35.8734C32.0508 36.394 31.2707 36.6758 30.4668 36.6667H11.6668M11.6668 18.3333V36.6667M11.6668 18.3333H6.66683C5.78277 18.3333 4.93493 18.6845 4.30981 19.3097C3.68469 19.9348 3.3335 20.7826 3.3335 21.6667V33.3333C3.3335 34.2174 3.68469 35.0652 4.30981 35.6904C4.93493 36.3155 5.78277 36.6667 6.66683 36.6667H11.6668" stroke="#4161E6" stroke-width="3" stroke-linecap="round" stroke-linejoin="round"/>
</svg>
