<svg width="122" height="62" viewBox="0 0 122 62" fill="none" xmlns="http://www.w3.org/2000/svg">
<path d="M3.57373 35.8828H7.01767V52.7695H3.57373V35.8828Z" fill="#C9CED3"/>
<path d="M9.01541 46.9837C9.01314 45.7709 9.37073 44.5845 10.0429 43.5748C10.7152 42.5652 11.6718 41.7777 12.7917 41.312C13.9116 40.8462 15.1446 40.7232 16.3345 40.9584C17.5244 41.1937 18.6178 41.7766 19.4762 42.6335C20.3347 43.4903 20.9197 44.5826 21.1571 45.7721C21.3947 46.9615 21.2739 48.1947 20.8103 49.3156C20.3466 50.4363 19.5609 51.3944 18.5525 52.0685C17.5442 52.7427 16.3586 53.1024 15.1457 53.1024C14.3389 53.1117 13.5387 52.9598 12.7915 52.6556C12.0444 52.3516 11.3654 51.9014 10.7945 51.3315C10.2235 50.7617 9.77209 50.0836 9.4666 49.3369C9.16111 48.5904 9.00772 47.7904 9.01541 46.9837ZM17.8089 46.9837C17.7954 46.4601 17.6277 45.9521 17.327 45.5233C17.0262 45.0944 16.6057 44.7639 16.118 44.5728C15.6302 44.3817 15.097 44.3388 14.5851 44.4492C14.0731 44.5595 13.605 44.8185 13.2394 45.1935C12.8738 45.5686 12.6269 46.0432 12.5296 46.5579C12.4322 47.0725 12.4889 47.6045 12.6923 48.0871C12.8958 48.5697 13.237 48.9817 13.6734 49.2714C14.1098 49.5611 14.6218 49.7158 15.1457 49.7159C15.5039 49.726 15.8605 49.6617 16.1927 49.527C16.525 49.3923 16.8257 49.1902 17.0761 48.9335C17.3262 48.6767 17.5206 48.371 17.6467 48.0354C17.7729 47.6998 17.8281 47.3418 17.8089 46.9837Z" fill="#C9CED3"/>
<path d="M35.1202 41.1979V52.1955C35.1202 56.0872 32.0781 57.7288 29.0015 57.7288C27.9197 57.8093 26.8365 57.5905 25.8707 57.0964C24.9048 56.6024 24.0936 55.852 23.5257 54.9278L26.4875 53.2173C26.7225 53.6909 27.0944 54.0832 27.5549 54.3431C28.0154 54.6031 28.5433 54.7188 29.0705 54.6751C29.4172 54.733 29.7726 54.7104 30.1094 54.609C30.4461 54.5077 30.755 54.3305 31.0124 54.0909C31.2696 53.8513 31.4685 53.5557 31.5936 53.2271C31.7187 52.8985 31.7666 52.5456 31.7337 52.1955V51.1279C31.3288 51.6261 30.8122 52.0218 30.2259 52.283C29.6395 52.5443 28.9998 52.6638 28.3587 52.6318C26.7998 52.6318 25.3049 52.0125 24.2025 50.9103C23.1002 49.808 22.481 48.313 22.481 46.7541C22.481 45.1952 23.1002 43.7003 24.2025 42.598C25.3049 41.4958 26.7998 40.8765 28.3587 40.8765C28.9995 40.8472 29.6382 40.9679 30.2241 41.2289C30.8101 41.4901 31.327 41.8843 31.7337 42.3803V41.2323L35.1202 41.1979ZM31.7337 46.7541C31.7566 46.1959 31.612 45.6434 31.3185 45.1679C31.0249 44.6924 30.5959 44.3155 30.0865 44.0859C29.5772 43.8561 29.0107 43.784 28.4599 43.8789C27.9092 43.9736 27.3995 44.2309 26.9963 44.6176C26.5929 45.0045 26.3145 45.503 26.1968 46.0492C26.079 46.5954 26.1274 47.1645 26.3357 47.683C26.5439 48.2016 26.9024 48.6459 27.3652 48.9591C27.828 49.2724 28.3739 49.4399 28.9326 49.4404C29.2974 49.4662 29.6635 49.4154 30.0073 49.291C30.3512 49.1666 30.6652 48.9718 30.9291 48.7186C31.1929 48.4655 31.4009 48.1599 31.5395 47.8216C31.6781 47.4833 31.7442 47.1197 31.7337 46.7541Z" fill="#C9CED3"/>
<path d="M37.1062 46.9837C37.1039 45.7709 37.4616 44.5845 38.1337 43.5748C38.806 42.5652 39.7626 41.7777 40.8825 41.312C42.0024 40.8462 43.2354 40.7232 44.4253 40.9584C45.6152 41.1937 46.7086 41.7766 47.5671 42.6335C48.4255 43.4903 49.0105 44.5826 49.248 45.7721C49.4854 46.9615 49.3647 48.1947 48.9011 49.3156C48.4374 50.4363 47.6517 51.3944 46.6434 52.0685C45.635 52.7427 44.4493 53.1024 43.2365 53.1024C42.4298 53.1117 41.6294 52.9598 40.8823 52.6556C40.1351 52.3516 39.4562 51.9014 38.8853 51.3315C38.3144 50.7617 37.8629 50.0836 37.5574 49.3369C37.2519 48.5904 37.0985 47.7904 37.1062 46.9837ZM45.8998 46.9837C45.8862 46.4601 45.7185 45.9521 45.4178 45.5233C45.117 45.0944 44.6965 44.7639 44.2088 44.5728C43.7212 44.3817 43.188 44.3388 42.6759 44.4492C42.1639 44.5595 41.6958 44.8185 41.3301 45.1935C40.9646 45.5686 40.7177 46.0432 40.6203 46.5579C40.523 47.0725 40.5797 47.6045 40.7831 48.0871C40.9866 48.5697 41.3278 48.9817 41.7641 49.2714C42.2006 49.5611 42.7126 49.7158 43.2365 49.7159C43.5929 49.7227 43.9469 49.6561 44.2765 49.5199C44.6059 49.3838 44.9039 49.1812 45.1517 48.9248C45.3994 48.6686 45.5916 48.3638 45.7165 48.0298C45.8412 47.6959 45.8958 47.3397 45.8768 46.9837H45.8998Z" fill="#C9CED3"/>
<path d="M50.9624 38.0984C50.9624 37.6852 51.0849 37.2812 51.3145 36.9377C51.5441 36.5941 51.8704 36.3263 52.2521 36.1681C52.634 36.01 53.054 35.9686 53.4593 36.0492C53.8646 36.1298 54.2369 36.3288 54.5291 36.621C54.8214 36.9132 55.0202 37.2855 55.1008 37.6908C55.1816 38.0961 55.1401 38.5162 54.9821 38.898C54.8239 39.2797 54.5561 39.6061 54.2125 39.8356C53.8689 40.0651 53.465 40.1877 53.0517 40.1877C52.4985 40.1848 51.9689 39.9636 51.5777 39.5724C51.1865 39.1813 50.9654 38.6517 50.9624 38.0984ZM51.3182 41.1979H54.7621V52.7695H51.3182V41.1979Z" fill="#C9CED3"/>
<path d="M69.7778 46.9837C69.8195 47.7486 69.7096 48.5143 69.4543 49.2365C69.1989 49.9588 68.8033 50.6234 68.29 51.1921C67.7767 51.7608 67.1561 52.2224 66.4638 52.5502C65.7715 52.8781 65.0212 53.0658 64.256 53.1025C63.6136 53.1333 62.9722 53.0229 62.3773 52.7789C61.7822 52.5349 61.2479 52.1634 60.8121 51.6905V57.4304H57.3682V41.1979H60.8121V42.2885C61.2479 41.8156 61.7822 41.4441 62.3773 41.2001C62.9722 40.9561 63.6136 40.8457 64.256 40.8765C65.0202 40.9132 65.7695 41.1005 66.461 41.4277C67.1526 41.755 67.7727 42.2155 68.2858 42.7829C68.7989 43.3504 69.1947 44.0136 69.4507 44.7345C69.7069 45.4554 69.818 46.2198 69.7778 46.9837ZM66.3339 46.9837C66.3202 46.4449 66.1488 45.922 65.8409 45.4796C65.533 45.0373 65.1021 44.6948 64.6016 44.495C64.1011 44.295 63.5528 44.2463 63.025 44.3548C62.497 44.4633 62.0124 44.7243 61.6313 45.1054C61.2502 45.4865 60.9893 45.971 60.8808 46.4989C60.7723 47.0269 60.8211 47.5751 61.0209 48.0756C61.2209 48.576 61.5633 49.007 62.0056 49.3148C62.448 49.6228 62.971 49.7942 63.5098 49.8078C63.8858 49.8317 64.2626 49.7748 64.6149 49.6411C64.9671 49.5073 65.2865 49.2996 65.5519 49.0322C65.8172 48.7646 66.0223 48.4434 66.1532 48.0901C66.284 47.7369 66.3379 47.3596 66.3109 46.9837H66.3339Z" fill="#C9CED3"/>
<path d="M80.4997 49.3026C80.4997 51.966 78.2038 53.1024 75.6782 53.1024C74.6693 53.1917 73.6568 52.977 72.7709 52.486C71.8852 51.995 71.1664 51.2502 70.7075 50.3473L73.7152 48.6368C73.8373 49.0544 74.0987 49.4176 74.4557 49.6661C74.8129 49.9146 75.2442 50.0335 75.6782 50.0029C76.5163 50.0029 76.9295 49.7388 76.9295 49.2797C76.9295 48.0054 71.1897 48.6828 71.1897 44.6878C71.1897 42.1622 73.3249 40.8879 75.7815 40.8879C76.6881 40.8604 77.5855 41.0757 78.3808 41.5118C79.1761 41.9477 79.8402 42.5885 80.3046 43.3675L77.2855 44.9518C77.1521 44.6486 76.9335 44.3907 76.6564 44.2093C76.3792 44.0279 76.0554 43.9309 75.7242 43.93C75.1273 43.93 74.7599 44.1597 74.7599 44.5844C74.8058 45.9045 80.4997 45.0206 80.4997 49.3026Z" fill="#C9CED3"/>
<path d="M93.1738 41.1979V52.7695H89.7297V51.6905C89.3292 52.1699 88.8208 52.5478 88.2461 52.7932C87.6716 53.0387 87.0469 53.1445 86.4235 53.1025C84.1276 53.1025 82.0957 51.4378 82.0957 48.3039V41.1979H85.5396V47.7988C85.5094 48.0801 85.5422 48.3646 85.6355 48.6317C85.7289 48.8988 85.8805 49.1417 86.0795 49.3429C86.2784 49.5441 86.5197 49.6983 86.7857 49.7946C87.0517 49.891 87.3359 49.9267 87.6175 49.8996C88.8803 49.8996 89.7643 49.1649 89.7643 47.5233V41.1979H93.1738Z" fill="#C9CED3"/>
<path d="M113.079 45.6749V52.7694H109.635V45.9735C109.635 44.8255 109.073 44.0678 107.971 44.0678C106.869 44.0678 106.157 44.8829 106.157 46.249V52.7694H102.713V45.9735C102.713 44.8255 102.162 44.0678 101.048 44.0678C99.935 44.0678 99.2462 44.8829 99.2462 46.249V52.7694H95.8022V41.1979H99.2462V42.2655C99.6061 41.794 100.078 41.4199 100.62 41.1774C101.161 40.9347 101.754 40.8313 102.346 40.8765C102.94 40.8475 103.531 40.9731 104.062 41.2406C104.593 41.5081 105.046 41.9087 105.376 42.4033C105.761 41.8862 106.27 41.475 106.856 41.208C107.442 40.941 108.086 40.8269 108.728 40.8765C111.346 40.8765 113.079 42.7821 113.079 45.6749Z" fill="#C9CED3"/>
<path d="M116.018 41.1291C117.438 41.1291 118.59 39.9777 118.59 38.5576C118.59 37.1374 117.438 35.9861 116.018 35.9861C114.598 35.9861 113.447 37.1374 113.447 38.5576C113.447 39.9777 114.598 41.1291 116.018 41.1291Z" fill="#C9CED3"/>
<path d="M42.5477 27.1238C49.1985 27.1238 54.5899 21.7322 54.5899 15.0814C54.5899 8.4307 49.1985 3.03918 42.5477 3.03918C35.8969 3.03918 30.5054 8.4307 30.5054 15.0814C30.5054 21.7322 35.8969 27.1238 42.5477 27.1238Z" fill="#C9CED3"/>
<path d="M69.4676 27.1238C76.1184 27.1238 81.5099 21.7322 81.5099 15.0814C81.5099 8.4307 76.1184 3.03918 69.4676 3.03918C62.8169 3.03918 57.4253 8.4307 57.4253 15.0814C57.4253 21.7322 62.8169 27.1238 69.4676 27.1238Z" fill="#C9CED3"/>
<path d="M27.6697 3.03918H3.59668V27.1122H27.6697V3.03918Z" fill="#C9CED3"/>
</svg>
