<svg width="148" height="62" viewBox="0 0 148 62" fill="none" xmlns="http://www.w3.org/2000/svg">
<path d="M73.9947 20.4544C74.5992 20.4459 75.1132 20.3329 75.1048 19.7115V19.6183C75.1132 18.9997 74.5992 18.8867 73.9947 18.8783C73.3875 18.8867 72.8734 18.9997 72.8819 19.6183V19.7115C72.8734 20.3329 73.3875 20.4459 73.9947 20.4544Z" fill="#C9CED3"/>
<path d="M51.8953 19.2059C51.8953 19.0251 51.7513 18.8811 51.5705 18.8811H49.7656V19.5279H51.5705C51.6609 19.5279 51.7371 19.4968 51.7993 19.4347C51.8642 19.3697 51.8953 19.2935 51.8953 19.2059Z" fill="#C9CED3"/>
<path d="M62.0552 18.8726L62.575 19.994H61.5327L62.0552 18.8726Z" fill="#C9CED3"/>
<path d="M85.2447 18.8726L85.7646 19.994H84.7222L85.2447 18.8726Z" fill="#C9CED3"/>
<path d="M48.3215 42.4855L47.5533 40.8279L46.7808 42.4855H48.3215Z" fill="#C9CED3"/>
<path d="M66.451 42.0095C66.451 42.5732 66.1295 43.0367 65.5617 43.0367H63.165V40.9824H65.5617C66.1295 40.9824 66.451 41.4417 66.451 42.0095Z" fill="#C9CED3"/>
<path d="M72.522 40.8279L73.2903 42.4855H71.7495L72.522 40.8279Z" fill="#C9CED3"/>
<path d="M81.8585 40.8405C82.1257 40.8405 82.3386 41.0535 82.3386 41.3207C82.3386 41.4501 82.2927 41.5629 82.1967 41.6589C82.1048 41.7508 81.9921 41.7967 81.8585 41.7967H79.1904V40.8405H81.8585Z" fill="#C9CED3"/>
<path d="M90.6854 42.0095C90.6854 42.5732 90.3634 43.0367 89.7954 43.0367H87.3984V40.9824H89.7954C90.3634 40.9824 90.6854 41.4417 90.6854 42.0095Z" fill="#C9CED3"/>
<path d="M38.1768 31.5472L35.3922 25.118H30.6147V35.8333H34.0954V30.0457L36.607 35.8333H39.7193L42.2582 30.0457V35.8333H45.7253V25.118H41.0979L38.1768 31.5472Z" fill="#C9CED3"/>
<path d="M59.9312 35.8333V33.1715H52.2462V31.7792H59.6173V29.1721H52.2462V27.7934H59.8357V25.118H48.6426V35.8333H59.9312Z" fill="#C9CED3"/>
<path d="M62.8675 33.9359C63.9322 35.3146 65.8295 35.9971 68.1091 35.9971C69.821 35.9971 71.0758 35.6494 71.95 35.098C72.1004 35.0031 72.2396 34.9021 72.3679 34.7959L72.4635 35.8333H75.3982V29.486H68.2729V31.7929H72.0813C72.0645 31.9021 72.0063 32.0735 71.9226 32.2368C71.8704 32.3388 71.8082 32.4376 71.74 32.5163C71.3442 32.9804 70.2931 33.3899 68.9281 33.3899C67.5085 33.3899 66.5939 33.0214 66.1025 32.4481C65.7749 32.0249 65.5838 31.4243 65.5838 30.5234C65.5838 29.5816 65.7749 28.94 66.1435 28.5169C66.6758 27.9163 67.5767 27.6569 68.9008 27.6569C70.0884 27.6569 70.9074 27.9299 71.2896 28.2712C71.5353 28.4759 71.7264 28.7626 71.7673 28.9537H75.3027C75.2977 28.8277 75.2796 28.6737 75.2492 28.5098C75.1972 28.2297 75.1093 27.9202 74.9887 27.6706C74.1424 25.9506 72.1768 24.9269 68.8326 24.9269C65.9251 24.9269 63.9731 25.8141 62.8948 27.1519C62.185 28.0664 61.8574 29.213 61.8574 30.4961C61.8574 31.9157 62.2396 33.1306 62.8675 33.9359Z" fill="#C9CED3"/>
<path d="M66.0278 30.5234C66.0278 29.6327 66.2099 29.1176 66.4771 28.8099C66.879 28.3576 67.6123 28.1008 68.9009 28.1008C70.0467 28.1008 70.7323 28.3686 70.994 28.6023L70.9997 28.6073L71.0055 28.6122C71.0955 28.6872 71.1778 28.7796 71.24 28.8697C71.3015 28.9587 71.3261 29.0205 71.3322 29.0421H67.8291V32.2368H71.395C71.2673 32.3811 70.9932 32.5612 70.5577 32.7059C70.1242 32.8499 69.5679 32.946 68.9282 32.946C67.5794 32.946 66.8208 32.5969 66.4469 32.1675C66.2025 31.8471 66.0278 31.3557 66.0278 30.5234Z" fill="#C9CED3"/>
<path d="M84.6718 29.0662L83.6548 31.0078H85.6326L84.6718 29.0662Z" fill="#C9CED3"/>
<path fill-rule="evenodd" clip-rule="evenodd" d="M87.5074 33.854L88.4494 35.8333H92.3944L86.9884 25.118H82.5798L76.8604 35.8333H80.7234L81.7197 33.854H87.5074ZM82.921 31.4516L84.2723 28.8718L84.6818 27.889L85.064 28.8581L86.3475 31.4516H82.921Z" fill="#C9CED3"/>
<path fill-rule="evenodd" clip-rule="evenodd" d="M115.991 54.3871H115.985C115.909 54.3871 115.833 54.3867 115.757 54.3859V54.3871H32.2646C24.897 54.3871 18.3251 50.9802 14.0384 45.656H26.3398V44.0968H12.8858C10.8787 41.1328 9.53374 37.6839 9.06334 33.9624H26.3398V32.4033H8.91884C8.89134 31.939 8.87744 31.4711 8.87744 31C8.87744 27.9134 9.47534 24.9666 10.5618 22.2688H26.3398V20.7097H11.2572C12.91 17.3419 15.3487 14.4297 18.3344 12.2124H102.06C103.104 11.4372 104.215 10.7469 105.382 10.1517C105.067 10.3121 104.757 10.4793 104.451 10.6532H20.7251C24.13 8.71802 28.0681 7.61292 32.2645 7.61292H115.757V7.61402C115.835 7.61325 115.913 7.61292 115.991 7.61292C128.907 7.61292 139.378 18.0836 139.378 31C139.378 43.9163 128.907 54.3871 115.991 54.3871ZM124.687 41.9688C125.734 38.8142 126.359 35.0673 126.359 31C126.359 27.2083 125.815 23.695 124.894 20.6804C124.781 20.3123 124.663 19.9517 124.54 19.5989C124.334 19.0113 124.113 18.4455 123.879 17.9033C123.563 17.1711 123.223 16.4819 122.862 15.8403C121.156 12.813 119.21 11.1826 117.394 10.6337V17.9033H122.17C122.574 18.7654 122.943 19.7041 123.269 20.7097H117.394V29.5967H124.774C124.791 30.0592 124.8 30.5271 124.8 31C124.8 31.4729 124.791 31.9408 124.774 32.4032H117.394V41.2903H123.268C122.943 42.2959 122.574 43.2346 122.17 44.0967H117.394V51.3664C119.21 50.8176 121.156 49.1871 122.862 46.1597C123.223 45.5181 123.564 44.8289 123.879 44.0967C124.17 43.4227 124.44 42.7122 124.687 41.9688ZM127.825 20.7097C128.574 23.4187 129.037 26.4225 129.142 29.5967H136.524C136.307 26.3747 135.348 23.356 133.818 20.7097H127.825ZM131.867 17.9033H126.908C126.008 15.5449 124.872 13.4935 123.56 11.8561C126.82 13.146 129.671 15.2441 131.867 17.9033ZM114.588 10.6334V17.9033H108.102C108.418 17.1711 108.758 16.4819 109.12 15.8403C110.825 12.8125 112.772 11.1819 114.588 10.6334ZM108.421 11.856C107.109 13.4934 105.974 15.5448 105.074 17.9033H100.114C102.31 15.244 105.162 13.1458 108.421 11.856ZM104.156 20.7097H95.1755V22.2688H97.3485C96.2924 24.5189 95.632 26.9913 95.4566 29.5967H102.839C102.945 26.4225 103.407 23.4187 104.156 20.7097ZM114.588 20.7097H107.079C106.277 23.3419 105.764 26.3529 105.648 29.5967H114.588V20.7097ZM129.142 32.4032C129.037 35.5774 128.574 38.5812 127.825 41.2903H133.818C135.348 38.644 136.307 35.6252 136.524 32.4032H129.142ZM107.079 41.2903C106.277 38.6581 105.764 35.647 105.648 32.4032H114.588V41.2903H107.079ZM104.156 41.2903C103.407 38.5812 102.945 35.5774 102.839 32.4032H95.4566C95.6737 35.6252 96.6322 38.644 98.1629 41.2903H104.156ZM126.908 44.0967C126.008 46.4551 124.872 48.5064 123.561 50.1438C126.82 48.8539 129.671 46.7558 131.867 44.0967H126.908ZM108.102 44.0967H114.588V51.3667C112.772 50.8182 110.825 49.1876 109.12 46.1597C108.758 45.5181 108.418 44.8289 108.102 44.0967ZM105.074 44.0967L95.1755 44.0968V45.6559H101.542C103.494 47.5805 105.828 49.118 108.421 50.144C107.109 48.5066 105.974 46.4552 105.074 44.0967ZM73.9944 17.675C72.5652 17.6778 71.3959 18.0902 71.4016 19.5279V19.8047C71.3959 21.2396 72.5652 21.6548 73.9944 21.6576C75.4208 21.6548 76.5902 21.2396 76.5845 19.8047V19.5279C76.5845 18.093 75.4236 17.675 73.9944 17.675ZM29.5925 17.7682V21.5644H31.0726V17.7682H29.5925ZM35.5608 19.7793L33.8943 17.7682H31.8577V21.5644H33.3379V19.2455L35.3772 21.5644H37.0437V17.7682H35.5608V19.7793ZM40.7975 18.9771V21.5701H39.3175V18.9771H37.5578V17.7739H42.5572V18.9771H40.7975ZM43.0544 21.5701H47.4974V20.5956H44.5344V20.1098H47.4974V19.2313H44.5344V18.7455H47.4974V17.7739H43.0544V21.5701ZM48.2854 21.5672V17.771H51.9432C52.7256 17.7626 53.3894 18.4207 53.3781 19.2059C53.3781 19.4912 53.3018 19.751 53.1493 19.9827C52.9996 20.2114 52.7991 20.3866 52.5505 20.5024L53.3781 21.5672H51.802L51.0874 20.6408H49.7655V21.5672H48.2854ZM57.5415 19.7793L55.875 17.7682H53.8385V21.5644H55.3186V19.2455L57.3579 21.5644H59.0244V17.7682H57.5415V19.7793ZM60.8039 21.5701H59.1374L61.1739 17.7739H62.9336L64.9701 21.5701H63.3036L63.0042 20.9204H61.1033L60.8039 21.5701ZM67.2296 21.5701V18.9771H68.9894V17.7739H63.99V18.9771H65.7497V21.5701H67.2296ZM69.4865 21.5644V17.7682H70.9665V21.5644H69.4865ZM79.0645 17.7682L80.731 19.7793V17.7682H82.214V21.5644H80.5474L78.5081 19.2455V21.5644H77.028V17.7682H79.0645ZM82.327 21.5701H83.9933L84.2928 20.9204H86.1936L86.4935 21.5701H88.1595L86.1236 17.7739H84.3634L82.327 21.5701ZM88.2756 21.5644V17.7682H89.7555V20.3611H92.7186V21.5644H88.2756ZM33.4275 40.498C32.7469 40.498 31.9118 40.5983 31.9118 41.045C31.9118 41.2914 32.5924 41.3248 33.4734 41.3665L33.4831 41.367C35.0483 41.4463 37.2396 41.5573 37.2355 42.9615C37.2355 44.5649 35.3983 44.9449 33.4275 44.9449C31.4609 44.9407 29.8282 44.7027 29.6194 42.9615H31.9118C32.1623 43.3958 32.7427 43.5085 33.4275 43.5085C34.1081 43.5085 34.9432 43.3958 34.9432 42.9615C34.9432 42.7152 34.2626 42.6776 33.3816 42.6359L33.3718 42.6354C31.8066 42.5561 29.6152 42.4451 29.6194 41.045C29.6194 39.4417 31.4567 39.0575 33.4275 39.0575C35.3941 39.07 37.0267 39.2913 37.2355 41.045H34.9432C34.6926 40.6024 34.1123 40.498 33.4275 40.498ZM42.0915 40.9824V44.8154H39.9036V40.9824H37.3023V39.2037H44.6928V40.9824H42.0915ZM43.2397 44.8154H45.7032L46.1458 43.8551H48.9559L49.3985 44.8154H51.862L48.8515 39.2037H46.2502L43.2397 44.8154ZM55.0437 39.1953L57.5072 42.1682V39.1953H59.6993V44.8071H57.2358L54.2211 41.3791V44.8071H52.0332V39.1953H55.0437ZM60.9769 39.2037V44.8154H65.9708C67.5115 44.8363 68.6556 43.5336 68.643 42.0095C68.6556 40.4772 67.5115 39.1828 65.9708 39.2037H60.9769ZM70.6723 44.8154H68.2088L71.2192 39.2037H73.8205L76.8309 44.8154H74.3674L73.9249 43.8551H71.1148L70.6723 44.8154ZM77.0022 39.1995V44.8113H79.1901V43.4417H81.1442L82.2005 44.8113H84.5304L83.307 43.2371C83.6745 43.0659 83.9709 42.8071 84.1922 42.4688C84.4177 42.1265 84.5304 41.7423 84.5304 41.3206C84.5471 40.1598 83.5659 39.187 82.4093 39.1995H77.0022ZM85.2111 44.8154V39.2037H90.2046C91.7456 39.1828 92.8895 40.4772 92.8775 42.0095C92.8895 43.5336 91.7456 44.8363 90.2046 44.8154H85.2111ZM46.169 36.2772H41.8141V32.1626L40.0091 36.2772H36.3156L34.5391 32.1837V36.2772H30.1706V24.6741H35.6835L38.1863 30.4527L40.8118 24.6741H46.169V36.2772ZM60.3752 36.2772H48.1988V24.6741H60.2797V28.2373H52.6902V28.7282H60.0613V32.2231H52.6902V32.7276H60.3752V36.2772ZM75.8421 36.2772H72.0586L71.9951 35.5883C71.0466 36.127 69.7626 36.441 68.1091 36.441C65.7569 36.441 63.6985 35.7375 62.5168 34.2082C61.8138 33.3061 61.4135 31.9874 61.4135 30.4961C61.4135 29.1374 61.7611 27.8885 62.5441 26.8797L62.5466 26.8764L62.5492 26.8733C63.7386 25.3977 65.8404 24.483 68.8326 24.483C72.2525 24.483 74.4321 25.534 75.3869 27.4746L75.3877 27.4761L75.3885 27.4776C75.6105 27.9374 75.7305 28.5449 75.7461 28.9359L75.7505 29.0421H75.8421V36.2772ZM81.9933 34.2979L80.9969 36.2772H76.1203L82.3135 24.6741H87.2626L93.1155 36.2772H88.1685L87.2275 34.2979H81.9933ZM29.5361 50.5672H93.0705V49.008H29.5361V50.5672Z" fill="#C9CED3"/>
<path fill-rule="evenodd" clip-rule="evenodd" d="M32.2646 2H115.991C132.007 2 144.991 14.9837 144.991 31C144.991 47.0163 132.007 60 115.991 60H32.2646C32.2646 57.1936 3.26465 47.0163 3.26465 31C3.26465 14.9837 16.2483 2 32.2646 2ZM32.2646 4.8065C17.7983 4.8065 6.07115 16.5337 6.07115 31C6.07115 45.4663 17.7983 57.1936 32.2646 57.1936H115.991C130.457 57.1936 142.184 45.4663 142.184 31C142.184 16.5337 130.457 4.8065 115.991 4.8065H32.2646Z" fill="#C9CED3"/>
</svg>
