<svg width="173" height="62" viewBox="0 0 173 62" fill="none" xmlns="http://www.w3.org/2000/svg">
<path d="M18.06 26.691C18.0118 27.8213 17.9878 29.2523 17.9878 30.9838C17.9878 32.7153 18.0118 34.1582 18.06 35.3126C18.108 36.443 18.2041 37.3447 18.3484 38.0182C18.5168 38.6915 18.7452 39.1604 19.0339 39.425C19.3465 39.6895 19.7553 39.8218 20.2604 39.8218C20.7654 39.8218 21.1622 39.6895 21.4508 39.425C21.7635 39.1604 21.9919 38.6915 22.1363 38.0182C22.3046 37.3447 22.4127 36.443 22.4609 35.3126C22.509 34.1582 22.5331 32.7153 22.5331 30.9838C22.5331 29.2523 22.509 27.8213 22.4609 26.691C22.4127 25.5366 22.3046 24.6227 22.1363 23.9494C21.9919 23.276 21.7635 22.8071 21.4508 22.5426C21.1622 22.2779 20.7654 22.1456 20.2604 22.1456C19.7553 22.1456 19.3465 22.2779 19.0339 22.5426C18.7452 22.8071 18.5168 23.276 18.3484 23.9494C18.2041 24.6227 18.108 25.5366 18.06 26.691Z" fill="#C9CED3"/>
<path fill-rule="evenodd" clip-rule="evenodd" d="M19.3379 4.18607C10.6397 4.3722 3.72579 11.55 3.86536 20.2489L4.03685 30.9372L3.86536 41.6255C3.72579 50.3246 10.6397 57.5024 19.3379 57.6884L30.0278 57.9171L40.7176 57.6884C49.4158 57.5024 56.3299 50.3246 56.1903 41.6255L56.0188 30.9372L56.1903 20.2489C56.3299 11.55 49.4158 4.3722 40.7176 4.18607L30.0278 3.95746L19.3379 4.18607ZM30.3971 44.5474L26.3568 48.0466L22.6773 44.0784C22.3887 44.1266 22.1001 44.1627 21.8116 44.1868C21.547 44.2348 21.2463 44.2589 20.9097 44.2589H20.2604C18.5529 44.2589 17.1099 44.0304 15.9315 43.5735C14.7531 43.1165 13.8032 42.3589 13.0817 41.3009C12.3603 40.2186 11.8432 38.8358 11.5305 37.1524C11.2179 35.4449 11.0616 33.3886 11.0616 30.9838C11.0616 28.5788 11.2179 26.5347 11.5305 24.8512C11.8432 23.1437 12.3603 21.761 13.0817 20.7027C13.8032 19.6205 14.7531 18.8389 15.9315 18.3579C17.1099 17.8528 18.5529 17.6004 20.2604 17.6004C21.9679 17.6004 23.4108 17.8528 24.5892 18.3579C25.7676 18.8389 26.7176 19.6205 27.4391 20.7027C28.1605 21.761 28.6776 23.1437 28.9903 24.8512C29.3029 26.5347 29.4592 28.5788 29.4592 30.9838C29.4592 33.4608 29.2909 35.5531 28.9541 37.2606C28.6175 38.9681 28.0644 40.3629 27.2948 41.4452L30.3971 44.5474ZM41.7843 27.3763V25.9334C41.7843 24.4664 41.64 23.4683 41.3513 22.9394C41.0629 22.4102 40.5939 22.1456 39.9445 22.1456C39.4395 22.1456 39.0307 22.2779 38.7181 22.5426C38.4294 22.807 38.201 23.276 38.0326 23.9494C37.8883 24.6227 37.7922 25.5366 37.744 26.691C37.6959 27.8213 37.6718 29.2523 37.6718 30.9838C37.6718 32.7153 37.6959 34.1582 37.744 35.3126C37.7922 36.443 37.8883 37.3447 38.0326 38.0182C38.201 38.6914 38.4294 39.1604 38.7181 39.425C39.0307 39.6895 39.4395 39.8218 39.9445 39.8218C40.3533 39.8218 40.6901 39.7257 40.9545 39.5332C41.2192 39.3167 41.4235 38.9681 41.5678 38.4871C41.7121 38.0061 41.8083 37.3687 41.8564 36.5751C41.9286 35.7575 41.9646 34.7354 41.9646 33.5089H48.4579V35.4209C48.4579 37.2245 48.2174 38.7036 47.7364 39.8578C47.2555 41.0122 46.6182 41.9261 45.8246 42.5994C45.0308 43.2488 44.1171 43.6817 43.0829 43.8981C42.0729 44.1386 41.0267 44.2589 39.9445 44.2589C38.0686 44.2589 36.5296 44.0304 35.3271 43.5735C34.1247 43.1165 33.1867 42.3589 32.5133 41.3009C31.8399 40.2186 31.3709 38.8358 31.1064 37.1524C30.866 35.4449 30.7457 33.3886 30.7457 30.9838C30.7457 28.5307 30.89 26.4505 31.1786 24.743C31.4912 23.0355 32.0083 21.6527 32.7298 20.5946C33.4512 19.5363 34.4011 18.7788 35.5795 18.3218C36.7579 17.8408 38.213 17.6004 39.9445 17.6004C41.4596 17.6004 42.7462 17.7928 43.8044 18.1776C44.8625 18.5624 45.7163 19.1155 46.3657 19.837C47.039 20.5344 47.52 21.3882 47.8086 22.3982C48.1212 23.3842 48.2775 24.5025 48.2775 25.7531V27.3763H41.7843Z" fill="#C9CED3"/>
<path fill-rule="evenodd" clip-rule="evenodd" d="M87.7149 22.3416L93.5959 28.4447L99.4769 22.3416H109.695L98.6971 32.8041L109.695 43.2664H99.4769L93.5959 37.1478L87.7149 43.2664H77.4816L88.4793 32.8041L77.4816 22.3416H87.7149ZM87.1479 32.8041L75.1865 21.4249H88.1059L93.5959 27.1222L99.0859 21.4249H111.544V21.4094H132.658C137.486 21.36 141.573 25.3974 141.507 30.2417C141.506 31.9842 141.035 33.5904 140.092 35.02C139.382 36.1021 138.482 36.9924 137.405 37.6693L141.907 43.45V39.7011C141.907 36.7639 144.102 34.8913 146.627 33.6495C149.177 32.3958 152.394 31.6125 155.073 30.9788L155.077 30.9778L155.108 30.9702C156.759 30.564 158.165 30.2183 159.167 29.8453C159.673 29.6563 160.006 29.4852 160.196 29.3398C160.219 29.3214 160.239 29.305 160.256 29.2909C160.198 29.2376 160.08 29.1581 159.846 29.0664C159.301 28.8531 158.371 28.6924 156.962 28.692C155.457 28.7076 154.178 28.83 153.304 29.1363C152.874 29.2873 152.615 29.4594 152.468 29.6208C152.344 29.7595 152.27 29.924 152.277 30.182L152.299 31.1207H142.234V30.204C142.234 28.3221 142.603 26.7486 143.342 25.4594C144.085 24.1644 145.167 23.2189 146.486 22.5407C149.074 21.2101 152.64 20.88 156.615 20.88C160.686 20.88 164.066 21.3498 166.459 22.5591C167.67 23.172 168.654 23.9877 169.331 25.0484C170.009 26.1119 170.341 27.3638 170.341 28.7872C170.341 31.4215 168.752 33.0993 166.803 34.1929C164.912 35.2546 162.531 35.8576 160.553 36.34H169.998V44.152H142.453L142.465 44.1676H131.432L127.485 39.0609H121.555V44.1676H111.973L111.99 44.1832H99.0853L93.5959 38.472L88.1065 44.1832H75.1865L87.1479 32.8041ZM111.544 43.7587V21.8493L100.028 32.8041L111.544 43.7587ZM127.937 38.1442L131.884 43.2508H140.588L136.017 37.3812C136.303 37.2487 136.576 37.102 136.839 36.9416C137.839 36.3292 138.67 35.5157 139.324 34.5166C140.167 33.2399 140.588 31.8076 140.588 30.2351C140.651 25.9069 136.985 22.2794 132.664 22.3261H112.462V43.2508H120.636V38.1442H127.937ZM155.742 37.2567C156.028 36.9067 156.547 36.6091 157.235 36.34C158.047 36.0224 159.092 35.7443 160.266 35.4664C164.29 34.4854 169.423 33.1465 169.423 28.7872C169.423 23.6806 164.681 21.7967 156.615 21.7967C149.032 21.7967 143.654 23.0322 143.187 29.2872C143.164 29.5816 143.152 29.887 143.152 30.204H151.359C151.357 30.1695 151.357 30.1354 151.359 30.1019C151.404 28.242 153.971 27.8058 156.958 27.7752C159.875 27.7752 161.217 28.4291 161.217 29.3166C161.217 30.412 158.628 31.0488 155.378 31.8481L155.29 31.8698C149.892 33.1465 142.825 34.9214 142.825 39.7011V43.2352H169.079V37.2567H155.742ZM160.308 29.3612C160.308 29.3612 160.302 29.3554 160.3 29.3419C160.308 29.3541 160.308 29.3612 160.308 29.3612ZM131.48 30.2351C131.48 29.7451 131.095 29.3615 130.604 29.3615H121.555V31.0933H130.604C130.868 31.0933 131.053 31.0132 131.218 30.848C131.407 30.6599 131.48 30.4718 131.48 30.2351ZM132.399 30.2351C132.399 29.2387 131.603 28.4447 130.604 28.4447H120.636V32.0099H130.604C131.103 32.0099 131.525 31.8387 131.868 31.4963C132.227 31.1381 132.399 30.7178 132.399 30.2351Z" fill="#C9CED3"/>
<path d="M78.2383 58.3622H82.1534V53.0015L86.0757 58.3622H88.0332L91.9557 53.0015V58.3622H95.8708V48.3137H90.977L87.0546 53.3379L83.1396 48.3137H78.2383V58.3622Z" fill="#C9CED3"/>
<path d="M104.119 48.067C100.339 48.0745 97.2454 49.166 97.2603 52.9716V53.7043C97.2454 57.5024 100.339 58.6015 104.119 58.6089C107.891 58.6015 110.985 57.5024 110.97 53.7043V52.9716C110.97 49.1735 107.899 48.067 104.119 48.067ZM107.055 53.4576C107.078 55.1024 105.718 55.4015 104.119 55.4239C102.513 55.4015 101.153 55.1024 101.175 53.4576V53.2109C101.153 51.5734 102.513 51.2744 104.119 51.252C105.718 51.2744 107.078 51.5734 107.055 53.2109V53.4576Z" fill="#C9CED3"/>
<path d="M121.938 53.353C121.938 54.3622 121.363 55.1921 120.347 55.1921H116.058V51.5137H120.347C121.363 51.5137 121.938 52.336 121.938 53.353ZM112.143 48.3287V58.3771H121.079C123.836 58.4145 125.883 56.0819 125.861 53.353C125.883 50.609 123.836 48.2913 121.079 48.3287H112.143Z" fill="#C9CED3"/>
<path d="M136.761 53.4651C136.783 55.1173 135.425 55.4015 133.825 55.4239C132.219 55.4015 130.867 55.1173 130.882 53.4651V48.3137H126.966V53.7118C126.952 57.5099 130.06 58.6015 133.825 58.6089C137.591 58.6015 140.699 57.5099 140.684 53.7118V48.3137H136.761V53.4651Z" fill="#C9CED3"/>
<path d="M142.447 48.3137V58.3622H154.2V55.1772H146.362V48.3137H142.447Z" fill="#C9CED3"/>
<path d="M155.537 58.3771H167.29V55.7978H159.452V54.5117H167.29V52.1866H159.452V50.9005H167.29V48.3287H155.537V58.3771Z" fill="#C9CED3"/>
<path d="M80.4926 10.0329V7.91527H86.2954C86.5765 7.91527 86.8212 8.01698 87.0207 8.22963C87.2292 8.43317 87.329 8.68275 87.329 8.97864C87.329 9.26542 87.2292 9.51501 87.0207 9.72778C86.8212 9.9312 86.5765 10.0329 86.2954 10.0329H80.4926ZM75.7417 4.28115V16.7094H80.4926V13.6763H87.4832C89.9947 13.7133 92.1254 11.5402 92.0891 8.97864C92.1254 6.40801 89.9947 4.25332 87.4832 4.28115H75.7417Z" fill="#C9CED3"/>
<path d="M101.546 3.95746C96.9578 3.96669 93.2042 5.31684 93.2222 10.0237V10.93C93.2042 15.6276 96.9578 16.9868 101.546 16.9961C106.124 16.9868 109.878 15.6276 109.86 10.93V10.0237C109.86 5.32608 106.133 3.95746 101.546 3.95746ZM105.108 10.6247C105.136 12.6591 103.486 13.029 101.546 13.0568C99.5962 13.029 97.9461 12.6591 97.9733 10.6247V10.3196C97.9461 8.29442 99.5962 7.92454 101.546 7.89683C103.486 7.92454 105.136 8.29442 105.108 10.3196V10.6247Z" fill="#C9CED3"/>
<path d="M128.383 12.1506L125.563 4.28119H120.214L117.385 12.1506L114.565 4.28119H109.216L114.565 16.7094H120.214L122.889 10.4953L125.563 16.7094H131.211L136.562 4.28119H131.211L128.383 12.1506Z" fill="#C9CED3"/>
<path d="M136.925 16.7094H151.186V13.5192H141.675V11.9286H151.186V9.05268H141.675V7.46218H151.186V4.28119H136.925V16.7094Z" fill="#C9CED3"/>
<path d="M153.716 4.27181V16.7002H158.467V13.6671H162.71L165.004 16.7002H170.063L167.406 13.2139C168.205 12.8348 168.848 12.2615 169.328 11.5125C169.819 10.7542 170.063 9.90352 170.063 8.96943C170.1 6.39867 167.968 4.24411 165.458 4.27181H153.716ZM164.26 7.90606C164.841 7.90606 165.304 8.37766 165.304 8.96943C165.304 9.25608 165.203 9.5058 164.995 9.71844C164.796 9.92199 164.55 10.0237 164.26 10.0237H158.467V7.90606H164.26Z" fill="#C9CED3"/>
</svg>
