<svg width="78" height="62" viewBox="0 0 78 62" fill="none" xmlns="http://www.w3.org/2000/svg">
<path d="M25.9947 21.3084C25.9947 21.1509 25.9947 18.8597 25.9947 18.8597H24.6332C24.6332 18.8597 24.6332 21.1153 24.6332 21.1865C24.6332 21.6031 24.2472 21.8825 23.5969 21.8825C22.9161 21.8825 22.5453 21.6132 22.5453 21.1814C22.5453 21.1103 22.5453 18.8597 22.5453 18.8597H21.1685C21.1685 18.8597 21.1685 20.9985 21.1685 21.1814C21.1685 22.3905 22.1591 22.9036 23.541 22.9036C25.0194 22.9036 25.9947 22.3854 25.9947 21.3084Z" fill="#C9CED3"/>
<path d="M30.58 22.8477V21.786H28.1517V18.8597H26.7749V22.8477H30.58Z" fill="#C9CED3"/>
<path d="M34.6719 19.8606V18.8597H29.9116V19.8606H31.5932V22.8477H32.9852V19.8606H34.6719Z" fill="#C9CED3"/>
<path d="M36.5025 22.8477V18.8597H35.1055V22.8477H36.5025Z" fill="#C9CED3"/>
<path d="M42.912 22.8477V18.8597H41.1897L40.1026 21.2526L39.0662 18.8597H37.2881V22.8477H38.5836V20.6937L39.5183 22.8477H40.6767L41.6216 20.6937V22.8477H42.912Z" fill="#C9CED3"/>
<path d="M45.0698 22.1111H47.2239L47.5745 22.8477H49.0426L47.0308 18.8597H45.3899L43.2612 22.8477H44.6989L45.0698 22.1111ZM46.792 21.2169H45.5169L46.0198 20.2567L46.1722 19.891L46.3145 20.2517L46.792 21.2169Z" fill="#C9CED3"/>
<path d="M53.3606 19.8606V18.8597H48.6006V19.8606H50.2821V22.8477H51.6742V19.8606H53.3606Z" fill="#C9CED3"/>
<path d="M57.99 22.8477V21.8571H55.1308V21.3389H57.8733V20.3686H55.1308V19.8554H57.9549V18.8597H53.7896V22.8477H57.99Z" fill="#C9CED3"/>
<path d="M31.5517 24.9677H30.2358C30.2358 24.9677 29.3772 27.4774 29.3772 27.5383C29.3772 27.4774 28.5746 24.9677 28.5746 24.9677H27.147C27.147 24.9677 26.3494 27.4774 26.3494 27.5383C26.3494 27.4774 25.4857 24.9677 25.4857 24.9677H24.0073L25.501 28.9558H26.9895C26.9895 28.9558 27.7922 26.5731 27.7973 26.5071C27.8023 26.5731 28.6 28.9558 28.6 28.9558H30.0936L31.5517 24.9677Z" fill="#C9CED3"/>
<path d="M33.3517 28.9558V24.9677H31.9546V28.9558H33.3517Z" fill="#C9CED3"/>
<path d="M38.7862 28.9558V24.9677H37.4857V27.137L35.5704 24.9677H34.1377V28.9558H35.4485V26.7356L37.4247 28.9558H38.7862Z" fill="#C9CED3"/>
<path d="M44.2285 28.9558V24.9677H42.928V27.137L41.0127 24.9677H39.5801V28.9558H40.8908V26.7356L42.867 28.9558H44.2285Z" fill="#C9CED3"/>
<path d="M49.2239 28.9558V27.9651H46.3637V27.4469H49.107V26.4766H46.3637V25.9634H49.1883V24.9677H45.0225V28.9558H49.2239Z" fill="#C9CED3"/>
<path d="M54.5944 26.1819C54.5944 25.8212 54.5076 25.5621 54.3247 25.3741C54.086 25.1201 53.6748 24.9677 53.0444 24.9677H49.8696V28.9558H51.2261V27.5486H52.4606L53.4516 28.9558H54.9654L53.7616 27.33C54.0302 27.2894 54.2493 27.1269 54.3909 26.9338C54.518 26.756 54.5944 26.4918 54.5944 26.1819ZM53.2738 26.3089C53.2738 26.375 53.2635 26.4562 53.2273 26.5172C53.1767 26.6188 53.0444 26.6595 52.8264 26.6595H51.2311V25.9329H52.8006C53.0145 25.9329 53.1571 25.9685 53.2273 26.1007C53.2635 26.1514 53.2738 26.2327 53.2738 26.3089Z" fill="#C9CED3"/>
<path d="M26.5678 32.8793C26.5678 32.8141 26.5678 30.9305 26.5678 30.9305H26.0921C26.0921 30.9305 26.0921 32.8064 26.0921 32.8486C26.0921 33.3012 25.6663 33.5583 25.0525 33.5583C24.3275 33.5583 23.9707 33.2821 23.9707 32.8448C23.9707 32.8025 23.9707 30.9305 23.9707 30.9305H23.4912C23.4912 30.9305 23.4912 32.7565 23.4912 32.8294C23.4912 33.6273 24.1127 33.9802 25.0334 33.9802C25.9846 33.9802 26.5678 33.6043 26.5678 32.8793Z" fill="#C9CED3"/>
<path d="M29.9806 33.9419V33.5008H27.9052V30.9305H27.4258V33.9419H29.9806Z" fill="#C9CED3"/>
<path d="M32.7053 31.3678V30.9305H29.5059V31.3678H30.8639V33.9419H31.3473V31.3678H32.7053Z" fill="#C9CED3"/>
<path d="M36.1152 31.7821C36.1152 31.5673 36.0691 31.41 35.9886 31.2834C35.8466 31.0724 35.5742 30.9305 35.1216 30.9305H33.1729V33.9419H33.6447V32.6721H35.018L35.8581 33.9419H36.4105L35.5014 32.5915C35.7315 32.5648 35.9118 32.4342 36.0077 32.2655C36.0768 32.1504 36.1152 31.9816 36.1152 31.7821ZM35.6394 31.8204C35.6394 31.9049 35.6203 32.0085 35.5858 32.0775C35.5244 32.1887 35.3824 32.2463 35.1523 32.2501H33.6485C33.6485 32.2425 33.6485 31.3602 33.6485 31.3602H35.0641C35.3517 31.3602 35.5052 31.4292 35.5858 31.5596C35.6203 31.621 35.6394 31.7246 35.6394 31.8204Z" fill="#C9CED3"/>
<path d="M37.4803 33.1977H39.3562L39.7397 33.9419H40.2538L38.727 30.9305H38.1631L36.5864 33.9419H37.0889L37.4803 33.1977ZM39.1566 32.7718H37.6874L38.2973 31.6172L38.4316 31.3372L38.5659 31.6172L39.1566 32.7718Z" fill="#C9CED3"/>
<path d="M45.1188 33.6542C45.2377 33.516 45.2915 33.3204 45.2915 33.1094C45.2915 32.91 45.2339 32.7105 45.115 32.5877C44.996 32.4727 44.8042 32.3768 44.5932 32.3576C44.716 32.3384 44.8119 32.2617 44.8771 32.1811C44.9807 32.0621 45.042 31.8704 45.042 31.6786C45.042 31.4752 44.9807 31.2911 44.8502 31.1645C44.7083 31.0226 44.4666 30.9305 44.1291 30.9305H42.1035V33.9419H44.2787C44.6853 33.9419 44.9692 33.8383 45.1188 33.6542ZM44.5471 31.7745C44.5471 31.9087 44.505 32.0276 44.4321 32.0967C44.3592 32.1773 44.2364 32.2118 44.106 32.2118H42.5715V31.3448H44.0178C44.1943 31.3448 44.3285 31.3793 44.4206 31.4637C44.5012 31.5404 44.5471 31.6517 44.5471 31.7745ZM44.7006 33.3626C44.6047 33.4701 44.4398 33.5238 44.1981 33.5238H42.5715V32.63H44.2097C44.4321 32.63 44.5856 32.6759 44.6777 32.7642C44.762 32.8448 44.7966 32.9483 44.7966 33.0673C44.7966 33.19 44.7697 33.2936 44.7006 33.3626Z" fill="#C9CED3"/>
<path d="M48.7744 33.9419V33.5008H46.4344V32.6414H48.6823V32.2041H46.4344V31.3678H48.7475V30.9305H45.9663V33.9419H48.7744Z" fill="#C9CED3"/>
<path d="M52.5216 33.0519C52.5216 32.5608 52.1961 32.3077 51.3942 32.2156C51.2596 32.1965 50.968 32.1658 50.8107 32.1466C50.0665 32.0583 49.8402 31.9586 49.8402 31.7016C49.8402 31.4523 50.0895 31.3103 50.8414 31.3103C51.4242 31.3103 51.7238 31.4254 51.8737 31.6325C51.916 31.69 51.9388 31.7592 51.9501 31.8128H52.4637C52.4492 31.7246 52.4141 31.6018 52.3604 31.5021C52.1537 31.1454 51.728 30.8883 50.8414 30.8883C49.7826 30.8844 49.3453 31.2681 49.3453 31.7438C49.3453 32.2194 49.6867 32.4611 50.5729 32.5648C50.7264 32.5839 50.9987 32.6146 51.133 32.63C51.8199 32.7143 52.0349 32.8179 52.0349 33.1056C52.0349 33.3703 51.7889 33.5621 51.0025 33.5621C50.3581 33.5621 50.0128 33.447 49.8747 33.2245C49.8325 33.1632 49.8057 33.0673 49.8018 33.0021H49.2954C49.307 33.1401 49.3453 33.2897 49.4143 33.4087C49.6139 33.7731 50.0819 33.9841 50.9872 33.9841C52.069 33.9841 52.5216 33.635 52.5216 33.0519Z" fill="#C9CED3"/>
<path d="M55.9619 31.3678V30.9305H52.7627V31.3678H54.1205V33.9419H54.6041V31.3678H55.9619Z" fill="#C9CED3"/>
<path d="M22.1333 36.5593C22.1333 36.2524 22.072 36.0452 21.9683 35.888C21.8226 35.6616 21.5387 35.5427 21.0438 35.5427H19.1411V38.5541H19.6168V37.572C19.6168 37.572 20.9595 37.572 21.0247 37.572C21.4888 37.5682 21.8072 37.4608 21.9761 37.2153C22.0834 37.0657 22.1333 36.8508 22.1333 36.5593ZM21.6499 36.5593C21.6499 36.7127 21.6345 36.8278 21.5847 36.9046C21.4965 37.0464 21.3162 37.1347 20.9441 37.1347C20.9096 37.1347 19.6168 37.1347 19.6168 37.1347V35.9724H20.9595C21.3085 35.9724 21.4888 36.0529 21.5847 36.2102C21.6307 36.2792 21.6499 36.4059 21.6499 36.5593Z" fill="#C9CED3"/>
<path d="M25.6054 38.5541V38.1129H23.2654V37.2536H25.5134V36.8163H23.2654V35.98H25.5786V35.5427H22.7974V38.5541H25.6054Z" fill="#C9CED3"/>
<path d="M29.2651 36.3943C29.2651 36.1795 29.2191 36.0222 29.1385 35.8956C28.9965 35.6846 28.7242 35.5427 28.2715 35.5427H26.3228V38.5541H26.7946V37.2843H28.168L29.0081 38.5541H29.5605L28.6513 37.2037C28.8815 37.1769 29.0618 37.0464 29.1577 36.8777C29.2267 36.7626 29.2651 36.5938 29.2651 36.3943ZM28.7894 36.4326C28.7894 36.5171 28.7702 36.6207 28.7357 36.6897C28.6743 36.8009 28.5323 36.8585 28.3022 36.8623H26.7984C26.7984 36.8546 26.7984 35.9724 26.7984 35.9724H28.214C28.5016 35.9724 28.6551 36.0414 28.7357 36.1718C28.7702 36.2332 28.7894 36.3367 28.7894 36.4326Z" fill="#C9CED3"/>
<path d="M32.8212 35.98V35.5427H30.1436V38.5541H30.6192V37.2728H32.7215V36.824H30.6192V35.98H32.8212Z" fill="#C9CED3"/>
<path d="M35.0047 35.489C34.364 35.489 33.9229 35.6463 33.6083 35.9762C33.3436 36.2332 33.2285 36.59 33.2285 37.0388C33.2285 37.5298 33.3781 37.8981 33.6544 38.1475C33.9498 38.4429 34.4024 38.5962 35.0047 38.5962C35.6262 38.5962 36.1095 38.4429 36.3972 38.1321C36.6466 37.8789 36.777 37.5184 36.777 37.035C36.777 36.567 36.6657 36.2102 36.4011 35.957C36.098 35.6425 35.6453 35.489 35.0047 35.489ZM35.0047 38.1667C34.5827 38.1667 34.2834 38.0746 34.0571 37.8905C33.827 37.7025 33.7157 37.4147 33.7157 37.0465C33.7157 36.7012 33.8116 36.4135 33.9958 36.2409C34.2068 36.0414 34.529 35.9225 35.0009 35.9225C35.488 35.9225 35.7911 36.0376 36.0174 36.237C36.2093 36.4059 36.2936 36.705 36.2936 37.0426C36.2936 37.384 36.2054 37.6757 36.0097 37.852C35.7834 38.063 35.4651 38.1667 35.0047 38.1667Z" fill="#C9CED3"/>
<path d="M40.3764 36.3943C40.3764 36.1795 40.3303 36.0222 40.2498 35.8956C40.1078 35.6846 39.8354 35.5427 39.3828 35.5427H37.4341V38.5541H37.9059V37.2843H39.2792L40.1194 38.5541H40.6717L39.7626 37.2037C39.9927 37.1769 40.173 37.0464 40.2689 36.8777C40.3381 36.7626 40.3764 36.5938 40.3764 36.3943ZM39.9006 36.4326C39.9006 36.5171 39.8815 36.6207 39.847 36.6897C39.7856 36.8009 39.6437 36.8585 39.4135 36.8623H37.9097C37.9097 36.8546 37.9097 35.9724 37.9097 35.9724H39.3253C39.613 35.9724 39.7664 36.0414 39.847 36.1718C39.8815 36.2332 39.9006 36.3367 39.9006 36.4326Z" fill="#C9CED3"/>
<path d="M44.9649 38.5541V35.5427H44.3435L43.1044 38.0209L41.8883 35.5427H41.2554V38.5541H41.7119V36.237L42.8473 38.5541H43.346L44.5084 36.237V38.5541H44.9649Z" fill="#C9CED3"/>
<path d="M46.3118 37.8099H48.1877L48.5713 38.5541H49.0854L47.5585 35.5427H46.9946L45.418 38.5541H45.9205L46.3118 37.8099ZM47.9882 37.384H46.519L47.1289 36.2294L47.2632 35.9493L47.3974 36.2294L47.9882 37.384Z" fill="#C9CED3"/>
<path d="M52.5413 38.5541V35.5427H52.0846V37.8827L50.0903 35.5427H49.5493V38.5541H50.0135V36.1987L52.0236 38.5541H52.5413Z" fill="#C9CED3"/>
<path d="M56.6801 37.4301H56.181C56.1655 37.5682 56.1118 37.7063 56.0157 37.8099C55.809 38.0516 55.4794 38.1551 54.973 38.1551C54.5473 38.1551 54.0906 38.0362 53.8715 37.7255C53.7568 37.5798 53.6834 37.3649 53.6834 37.0426C53.6834 36.7549 53.7341 36.5401 53.8446 36.3943C54.0286 36.099 54.4161 35.9455 54.9617 35.9455C55.4907 35.9455 55.8245 36.0912 56.0012 36.2946C56.1004 36.402 56.1583 36.5286 56.1769 36.6782H56.676C56.6605 36.5094 56.6067 36.3099 56.492 36.1412C56.2461 35.7767 55.7935 35.489 54.9648 35.489C54.1753 35.489 53.7031 35.7422 53.4416 36.1219C53.2732 36.3406 53.1885 36.6475 53.1885 37.0388C53.1885 37.4761 53.2928 37.7984 53.4726 38.0247C53.7341 38.3815 54.2363 38.5962 54.9958 38.5962C55.7749 38.5962 56.2389 38.3623 56.4693 37.9902C56.5995 37.8099 56.6646 37.595 56.6801 37.4301Z" fill="#C9CED3"/>
<path d="M60.1128 38.5541V38.1129H57.7723V37.2536H60.0208V36.8163H57.7723V35.98H60.0859V35.5427H57.3042V38.5541H60.1128Z" fill="#C9CED3"/>
<path d="M25.0299 41.5456L25.6036 43.3114H27.4602L25.9583 44.4027L26.532 46.1683L25.0299 45.0771L23.5279 46.1683L24.1017 44.4027L22.5996 43.3114H24.4562L25.0299 41.5456Z" fill="#C9CED3"/>
<path d="M31.6527 41.5457L32.2381 43.3114H34.1326L32.6 44.4027L33.1854 46.1684L31.6527 45.0771L30.1201 46.1684L30.7055 44.4027L29.1729 43.3114H31.0674L31.6527 41.5457Z" fill="#C9CED3"/>
<path d="M38.224 41.5457L38.8095 43.3114H40.7039L39.1713 44.4027L39.7568 46.1684L38.224 45.0771L36.6914 46.1684L37.2768 44.4027L35.7441 43.3114H37.6387L38.224 41.5457Z" fill="#C9CED3"/>
<path d="M44.7948 41.5457L45.3802 43.3114H47.2747L45.7421 44.4027L46.3275 46.1684L44.7948 45.0771L43.2622 46.1684L43.8476 44.4027L42.3149 43.3114H44.2095L44.7948 41.5457Z" fill="#C9CED3"/>
<path d="M51.4182 41.5457L51.9917 43.3114H53.8486L52.3461 44.4027L52.9196 46.1684L51.4182 45.0771L49.916 46.1684L50.4898 44.4027L48.9878 43.3114H50.8444L51.4182 41.5457Z" fill="#C9CED3"/>
<path d="M28.2476 11.7554L28.6814 13.0905H30.0852L28.9496 13.9156L29.3834 15.2506L28.2476 14.4256L27.112 15.2506L27.5458 13.9156L26.4102 13.0905H27.8139L28.2476 11.7554Z" fill="#C9CED3"/>
<path d="M33.2555 11.7535L33.6981 13.0886H35.1304L33.9717 13.9137L34.4142 15.2487L33.2555 14.4236L32.0966 15.2487L32.5393 13.9137L31.3804 13.0886H32.8128L33.2555 11.7535Z" fill="#C9CED3"/>
<path d="M38.2237 11.7535L38.6663 13.0886H40.0987L38.9399 13.9137L39.3825 15.2487L38.2237 14.4236L37.0648 15.2487L37.5075 13.9137L36.3486 13.0886H37.781L38.2237 11.7535Z" fill="#C9CED3"/>
<path d="M43.1925 11.7535L43.635 13.0886H45.0675L43.9087 13.9137L44.3513 15.2487L43.1925 14.4236L42.0336 15.2487L42.4763 13.9137L41.3174 13.0886H42.7498L43.1925 11.7535Z" fill="#C9CED3"/>
<path d="M48.1993 11.7535L48.6331 13.0886H50.0369L48.9012 13.9137L49.335 15.2487L48.1993 14.4236L47.0637 15.2487L47.4974 13.9137L46.3618 13.0886H47.7655L48.1993 11.7535Z" fill="#C9CED3"/>
<path fill-rule="evenodd" clip-rule="evenodd" d="M8.25327 35.7847C6.33892 23.8075 11.9259 11.9574 23.1108 6.86865L23.2141 7.09557C12.1417 12.1331 6.60087 23.8672 8.49941 35.7454C10.5999 48.8866 21.2012 56.7678 34.1835 57.1478L34.1762 57.397C21.0927 57.014 10.3753 49.0615 8.25327 35.7847Z" fill="#C9CED3"/>
<path d="M20.6855 9.9254C18.6186 9.97252 16.1994 11.1381 14.772 12.8311C15.9167 13.8941 17.7585 13.5011 19.084 13.2837C20.9757 12.9735 22.9874 12.3725 24.7725 11.5218C24.0385 9.95939 22.0613 9.89409 20.6855 9.9254Z" fill="#C9CED3"/>
<path d="M19.0602 7.37552C17.8359 9.28264 16.3769 11.1781 14.789 12.8472C13.4606 11.6002 14.2624 9.52495 14.8046 8.23442C15.7868 5.89599 18.1417 3.87944 20.6036 2.84766C21.2793 4.38495 19.8116 6.20496 19.0602 7.37552Z" fill="#C9CED3"/>
<path d="M14.7041 15.2734C12.7687 15.9614 11.1055 17.8981 10.2705 19.8424C11.6622 20.4895 13.2443 19.555 14.4018 18.9328C15.991 18.0785 17.6124 16.8997 18.8882 15.5355C17.7355 14.3192 15.9853 14.8181 14.7041 15.2734Z" fill="#C9CED3"/>
<path d="M12.358 13.3677C11.9343 15.5429 11.224 17.7974 10.2911 19.8523C8.6628 19.0843 8.7248 16.8848 8.79455 15.485C8.91359 13.0958 10.2502 10.3713 12.1111 8.63989C13.2504 9.86129 12.6279 11.9821 12.358 13.3677Z" fill="#C9CED3"/>
<path d="M10.9802 22.1779C9.36751 23.4502 8.38998 25.8079 8.16357 27.9134C9.68919 28.0885 10.9086 26.7001 11.816 25.7476C13.0513 24.4507 14.2208 22.824 14.9634 21.1222C13.5091 20.3288 12.0307 21.3492 10.9802 22.1779Z" fill="#C9CED3"/>
<path d="M8.18615 21.1039C8.47373 23.3005 8.47435 25.6768 8.18667 27.9162C6.41243 27.6983 5.82395 25.568 5.47634 24.2316C4.87618 21.9248 5.27856 18.9451 6.44767 16.7025C7.9087 17.5113 8.00242 19.6999 8.18615 21.1039Z" fill="#C9CED3"/>
<path d="M9.71446 29.7145C8.4383 31.584 7.98952 34.5136 8.56343 36.8683C10.2498 36.469 11.0858 34.5597 11.7571 33.2113C12.6491 31.4192 13.4032 29.3285 13.6731 27.2772C11.844 26.8965 10.5551 28.483 9.71446 29.7145Z" fill="#C9CED3"/>
<path d="M6.36438 29.5255C7.35866 31.8275 8.13459 34.3611 8.58863 36.8626C6.65454 37.2781 5.26254 35.2472 4.45385 33.9006C3.01411 31.5034 2.59468 28.1803 3.12209 25.3126C4.8923 25.6676 5.75854 28.1233 6.36438 29.5255Z" fill="#C9CED3"/>
<path d="M10.6073 37.848C9.92209 40.1157 10.3984 43.1987 11.7857 45.3307C13.3103 44.338 13.5213 42.1534 13.7374 40.5869C14.0223 38.5199 14.1564 36.23 13.8025 34.0865C11.8525 34.3355 11.065 36.333 10.6073 37.848Z" fill="#C9CED3"/>
<path d="M7.21879 38.8188C8.92958 40.7818 10.5077 43.02 11.8092 45.316C10.044 46.418 7.97271 44.9125 6.71649 43.8471C4.4879 41.9573 3.04082 38.7451 2.69775 35.7169C4.55238 35.4676 6.1868 37.6345 7.21879 38.8188Z" fill="#C9CED3"/>
<path d="M14.2029 45.5666C14.3499 48.2063 16.0685 50.9761 18.3567 52.5527C19.4617 51.0398 18.7691 48.7217 18.3921 47.1036C17.8846 44.925 17.1823 42.6564 16.1385 40.6435C14.3184 41.6053 14.1061 43.8282 14.2029 45.5666Z" fill="#C9CED3"/>
<path d="M11.1252 47.7963C13.6043 49.1739 16.0763 50.7994 18.3746 52.5291C16.9982 54.3416 14.2471 53.6188 12.5416 53.0363C9.53629 52.0096 6.85696 49.3033 5.45752 46.2966C7.23186 45.3827 9.66081 46.9826 11.1252 47.7963Z" fill="#C9CED3"/>
<path d="M21.2632 52.0153C22.7511 54.7307 26.1418 56.5022 29.3348 56.9286C29.6785 54.9545 27.5425 53 26.3785 51.7213C24.7214 49.9009 22.9946 48.0118 21.0585 46.4378C19.608 48.1219 20.3749 50.3941 21.2632 52.0153Z" fill="#C9CED3"/>
<path d="M19.1385 55.4567C22.5207 55.8084 25.9602 56.3146 29.3405 56.8983C29.0178 59.3891 25.0651 59.791 23.2708 59.9381C19.5916 60.2396 15.4988 58.7607 12.6489 56.271C14.0644 54.6055 17.3368 55.2695 19.1385 55.4567Z" fill="#C9CED3"/>
<path d="M25.6529 4.77811C23.3821 5.42591 20.7242 6.65485 19.4111 8.92343C21.7945 8.66365 24.137 7.8156 26.4278 7.16945C28.9937 6.4456 31.6956 5.90424 34.1799 4.90511C31.4592 3.8166 28.2519 4.03659 25.6529 4.77811Z" fill="#C9CED3"/>
<path fill-rule="evenodd" clip-rule="evenodd" d="M69.5833 35.7454C71.4816 23.8672 65.9408 12.1333 54.8687 7.09557L54.972 6.86865C66.1568 11.9575 71.744 23.8075 69.8293 35.7847C67.7078 49.0615 56.9901 57.014 43.9066 57.397L43.8994 57.1478C56.8816 56.7678 67.4826 48.8866 69.5833 35.7454Z" fill="#C9CED3"/>
<path d="M57.3969 9.9254C59.4636 9.97252 61.8826 11.1381 63.3107 12.8311C62.1657 13.8941 60.3233 13.5011 58.9986 13.2837C57.1065 12.9735 55.0946 12.3725 53.3101 11.5218C54.0437 9.95939 56.0205 9.89409 57.3969 9.9254Z" fill="#C9CED3"/>
<path d="M59.0227 7.37552C60.2472 9.28264 61.7062 11.1781 63.2934 12.8472C64.6223 11.6002 63.8204 9.52495 63.2779 8.23442C62.2963 5.89599 59.9413 3.87944 57.4789 2.84766C56.8031 4.38495 58.2714 6.20496 59.0227 7.37552Z" fill="#C9CED3"/>
<path d="M63.3788 15.2734C65.3142 15.9614 66.9769 17.8981 67.8118 19.8424C66.4199 20.4895 64.8379 19.555 63.6805 18.9328C62.0913 18.0785 60.47 16.8997 59.1948 15.5355C60.347 14.3192 62.0975 14.8181 63.3788 15.2734Z" fill="#C9CED3"/>
<path d="M65.7245 13.3677C66.1481 15.5429 66.858 17.7974 67.7911 19.8523C69.4197 19.0843 69.3577 16.8848 69.2874 15.485C69.1686 13.0958 67.8325 10.3713 65.9714 8.63989C64.8317 9.86129 65.4548 11.9821 65.7245 13.3677Z" fill="#C9CED3"/>
<path d="M67.1021 22.1779C68.7151 23.4502 69.6927 25.8079 69.919 27.9134C68.3938 28.0885 67.1744 26.7001 66.2672 25.7476C65.0313 24.4507 63.8616 22.824 63.1196 21.1222C64.5735 20.3288 66.0522 21.3492 67.1021 22.1779Z" fill="#C9CED3"/>
<path d="M69.897 21.1039C69.6087 23.3002 69.6087 25.6768 69.896 27.9162C71.6702 27.6983 72.2592 25.568 72.6064 24.2316C73.2068 21.9248 72.8038 18.9451 71.6351 16.7025C70.174 17.5113 70.0799 19.6999 69.897 21.1039Z" fill="#C9CED3"/>
<path d="M68.3679 29.7145C69.644 31.584 70.0925 34.5136 69.519 36.8683C67.8326 36.469 66.9966 34.5598 66.325 33.2113C65.4332 31.4192 64.6789 29.3285 64.4092 27.2772C66.2382 26.8965 67.5278 28.483 68.3679 29.7145Z" fill="#C9CED3"/>
<path d="M71.7179 29.5255C70.7238 31.8275 69.9478 34.3611 69.4941 36.8626C71.4275 37.2781 72.8194 35.2472 73.6285 33.9006C75.0679 31.5034 75.4875 28.1803 74.9605 25.3126C73.1904 25.6676 72.3234 28.1233 71.7179 29.5255Z" fill="#C9CED3"/>
<path d="M67.4752 37.848C68.1603 40.1157 67.6849 43.1987 66.2972 45.3307C64.773 44.338 64.5612 42.1534 64.3452 40.5869C64.061 38.5199 63.9267 36.23 64.2801 34.0865C66.23 34.3355 67.0174 36.333 67.4752 37.848Z" fill="#C9CED3"/>
<path d="M70.8635 38.8188C69.1533 40.7819 67.5754 43.02 66.2734 45.316C68.0384 46.418 70.1102 44.9125 71.3667 43.8471C73.5946 41.9573 75.0423 38.7451 75.3854 35.7169C73.5305 35.4676 71.8958 37.6345 70.8635 38.8188Z" fill="#C9CED3"/>
<path d="M63.8791 45.5666C63.7324 48.2063 62.014 50.9761 59.7262 52.5527C58.6205 51.0398 59.3139 48.7218 59.69 47.1036C60.1974 44.925 60.9 42.6564 61.9437 40.6435C63.7644 41.6053 63.9763 43.8282 63.8791 45.5666Z" fill="#C9CED3"/>
<path d="M66.9573 47.7963C64.4784 49.1739 62.0066 50.7994 59.7085 52.5291C61.0849 54.3416 63.8356 53.6188 65.5406 53.0363C68.5466 52.0096 71.226 49.3033 72.6252 46.2966C70.8509 45.3827 68.4216 46.9826 66.9573 47.7963Z" fill="#C9CED3"/>
<path d="M56.8192 52.0153C55.3312 54.7307 51.9408 56.5022 48.7474 56.9286C48.4037 54.9545 50.5396 53 51.7042 51.7213C53.3606 49.9009 55.0873 48.0118 57.0238 46.4378C58.4746 48.1219 57.7068 50.3941 56.8192 52.0153Z" fill="#C9CED3"/>
<path d="M58.9441 55.4567C55.562 55.8084 52.123 56.3146 48.7422 56.8983C49.065 59.3891 53.0179 59.791 54.8118 59.9381C58.4915 60.2396 62.5845 58.7607 65.4334 56.271C64.0188 54.6055 60.7462 55.2695 58.9441 55.4567Z" fill="#C9CED3"/>
<path d="M52.43 4.77811C54.7002 5.42591 57.359 6.65485 58.6713 8.92343C56.2885 8.66365 53.9459 7.8156 51.655 7.16945C49.089 6.4456 46.3872 5.90424 43.9028 4.90511C46.6237 3.8166 49.8309 4.03659 52.43 4.77811Z" fill="#C9CED3"/>
<path d="M40.5177 3.60415L39.3526 1.03333L38.2094 3.55631L35.5508 1.90794L37.2592 5.49805H41.5078L43.1546 1.90794L40.5177 3.60415Z" fill="#C9CED3"/>
<path d="M41.481 6.05597H37.2256V6.68393H41.481V6.05597Z" fill="#C9CED3"/>
<path d="M39.6569 54.6342L40.3427 56.7445H42.5615L40.7664 58.0486L41.452 60.1589L39.6569 58.8547L37.8618 60.1589L38.5475 58.0486L36.7524 56.7445H38.9713L39.6569 54.6342Z" fill="#C9CED3"/>
</svg>
