<svg width="123" height="62" viewBox="0 0 123 62" fill="none" xmlns="http://www.w3.org/2000/svg">
<path d="M9.57591 13.3278C8.81844 11.4027 9.14728 9.18914 9.84502 7.32747C10.5791 5.36851 11.8574 3.41492 13.7679 2.38464C13.8627 4.44901 13.2321 6.48857 12.5431 8.3277C11.9234 9.98191 11.1631 11.7443 9.90761 13.1123C9.7147 14.1489 9.56685 15.1826 9.46288 16.2116C9.879 15.1246 10.5537 14.1338 11.3956 13.3371C12.4795 12.3112 14.0919 11.5196 15.6054 11.9877C15.1621 13.6608 14.1516 15.2645 12.9549 16.3896C12.013 17.2751 10.7695 18.4099 9.3049 18.4544C9.24457 19.9687 9.27867 21.4691 9.40327 22.9491C9.60989 21.866 10.0526 20.8461 10.6923 20.0866C11.571 19.043 12.8739 17.7679 14.5379 17.9812C14.4471 19.6745 13.7716 21.4095 12.831 22.7131C12.0835 23.7491 11.0968 25.0695 9.69622 25.4106C9.92049 26.8649 10.2329 28.295 10.6292 29.6945C10.633 28.6229 10.8697 27.5712 11.3392 26.7276C12.0009 25.5381 13.0316 24.0546 14.6974 23.9386C14.9416 25.5998 14.6108 27.4158 13.9433 28.8602C13.4099 30.0147 12.6987 31.487 11.4023 32.0961C11.9467 33.6018 12.5909 35.0653 13.3295 36.478C13.0702 35.2604 13.0806 33.9773 13.3875 32.8229C13.8104 31.2315 14.8602 29.5597 16.5456 29.0746C17.1414 30.8316 17.0593 32.7924 16.7132 34.5783C16.4283 36.0486 15.8686 37.7756 14.6141 38.7307C15.4343 40.0543 16.3416 41.3246 17.3311 42.5332C16.7995 41.3478 16.5353 40.0514 16.677 38.8645C16.8835 37.1354 17.3694 35.2857 19.1356 34.3638C20.1376 36.0926 20.3697 38.0321 20.4549 39.9478C20.5237 41.4965 20.3006 43.4067 19.225 44.6666C20.4081 45.8967 21.6847 47.048 23.0483 48.1096C22.168 46.9804 21.5515 45.6553 21.421 44.3448C21.2367 42.4933 21.3268 40.455 22.9699 39.0963C24.3752 40.564 25.2137 42.7255 25.6247 44.603C25.9881 46.2629 26.3675 48.2276 25.5023 49.8611C27.2375 50.9938 29.09 51.9918 31.0486 52.8369C29.6704 51.8548 28.5423 50.5074 28.0048 49.1162C27.3005 47.2926 26.8648 45.1196 28.2368 43.2932C30.075 44.4706 31.426 46.4794 32.4904 48.3115C33.4037 49.8836 34.3491 52.0533 33.88 53.9256C34.9644 54.2935 36.0768 54.6167 37.2158 54.8923L37.1481 55.1719C36.0048 54.8952 34.8881 54.571 33.7993 54.202C33.0364 56.4563 30.5375 57.201 28.5165 57.5298C25.637 57.9983 22.2083 57.0906 19.75 55.2621C21.0474 53.4284 23.6947 53.2424 25.6909 53.1021L25.7169 53.1003C27.9037 52.9466 30.2689 53.1519 32.468 53.7233C29.9275 52.7562 27.5504 51.5403 25.3585 50.1108L25.3262 50.1618C24.125 52.1095 21.7135 52.1854 19.8206 52.0623C17.252 51.8951 14.2865 50.3333 12.5701 48.1744C14.1845 46.7579 16.569 47.1544 18.4166 47.4615L18.4256 47.4629C20.4876 47.8057 22.741 48.5535 24.6325 49.705C24.4523 49.5631 24.276 49.413 24.1046 49.2556C22.2656 47.9444 20.5692 46.4777 19.0298 44.8786C19.0119 44.8965 18.9938 44.9143 18.9756 44.9319C17.4787 46.4377 15.2987 46.0434 13.5974 45.5533C11.3207 44.8976 8.95961 42.9192 7.82811 40.6479C9.58152 39.6655 11.6778 40.4751 13.3084 41.1154C15.0981 41.8183 16.9916 42.9427 18.4475 44.3759C18.2974 44.1866 18.1542 43.9888 18.0189 43.7841C16.6656 42.2567 15.4482 40.6212 14.378 38.8958L14.3244 38.9295C12.6311 40.0222 10.7125 39.2309 9.19199 38.4527C7.13037 37.3976 5.47366 35.0788 4.7578 32.7984C6.58668 32.2126 8.39362 33.3623 9.79828 34.2729C11.3346 35.2687 12.8907 36.689 13.9589 38.3178C13.8805 38.1573 13.8074 37.9933 13.74 37.8261C12.7137 36.0355 11.8418 34.1557 11.1359 32.2057L11.0996 32.2181L11.0966 32.2192C9.55695 32.8045 7.84242 31.8945 6.72463 30.8965C5.17105 29.5096 4.07603 27.3774 3.81933 25.2944C5.42453 25.0864 6.93686 26.3283 7.97083 27.3876C9.16099 28.6067 10.2292 30.0476 10.8859 31.648C10.838 31.4742 10.7968 31.2976 10.7623 31.1193C10.1647 29.2868 9.71195 27.397 9.41352 25.465L9.39027 25.4678L9.3824 25.4692C7.75466 25.7409 6.24973 24.5034 5.35061 23.3024C4.08915 21.617 3.43887 19.2845 3.60185 17.1705C5.22327 17.2838 6.45791 18.8263 7.25854 20.0741C8.1852 21.5186 8.95365 23.1533 9.29023 24.8636C9.27998 24.7275 9.2739 24.5907 9.27175 24.4534C9.02459 22.4871 8.93648 20.4804 9.01708 18.449L9.01243 18.4487C7.3575 18.3891 6.13443 16.8526 5.50299 15.4897C4.59946 13.5393 4.454 11.0739 5.05707 8.99623C6.63437 9.43893 7.5137 11.2483 8.03271 12.641C8.63113 14.2468 9.04879 15.9982 9.05213 17.7394C9.13822 16.2786 9.31158 14.8062 9.57591 13.3278Z" fill="#C9CED3"/>
<path d="M42.1702 9.72375V16.6985C42.1702 19.7662 39.3919 21.2422 35.181 21.2422C31.2451 21.2422 28.4233 19.7808 28.4233 16.3368V9.72375H32.3448V16.3368C32.3448 17.5668 33.4011 18.3336 35.3402 18.3336C37.1924 18.3336 38.2922 17.5378 38.2922 16.3512V9.72375H42.1702Z" fill="#C9CED3"/>
<path d="M55.2304 18.0587V21.083H44.3921V9.72375H48.3136V18.0587H55.2304Z" fill="#C9CED3"/>
<path d="M66.8845 12.5744V9.72375H53.3257V12.5744H58.1154V21.083H62.0803V12.5744H66.8845Z" fill="#C9CED3"/>
<path fill-rule="evenodd" clip-rule="evenodd" d="M80.7946 10.8815C81.3156 11.4168 81.5624 12.1549 81.5624 13.1822C81.5624 14.0649 81.3454 14.8174 80.983 15.3238C80.5776 15.8737 79.9552 16.3368 79.1885 16.4525L82.6188 21.083H78.3062L75.484 17.0747H71.9682V21.083H68.1045V9.72375H77.1485C78.9429 9.72375 80.115 10.1579 80.7946 10.8815ZM77.6695 14.1373C77.7709 13.9636 77.7995 13.7321 77.7995 13.544C77.7995 13.3269 77.7709 13.0954 77.6695 12.9507C77.4668 12.5744 77.0615 12.4732 76.4534 12.4732H71.9826V14.5425H76.5261C77.1485 14.5425 77.5253 14.4267 77.6695 14.1373Z" fill="#C9CED3"/>
<path fill-rule="evenodd" clip-rule="evenodd" d="M87.8383 18.9849H93.9739L94.9718 21.083H99.1545L93.4242 9.72375H88.7504L82.6875 21.083H86.7819L87.8383 18.9849ZM92.7434 16.438H89.1117L90.5448 13.7032L90.9788 12.6612L91.3842 13.6887L92.7434 16.438Z" fill="#C9CED3"/>
<path fill-rule="evenodd" clip-rule="evenodd" d="M80.3808 23.2224C77.9532 23.2224 76.6763 24.3729 76.6763 26.0636C76.6763 27.9719 78.0164 28.9399 80.3808 28.9399C82.9836 28.9399 84.0781 27.8175 84.0781 26.0636C84.0781 24.2817 82.8429 23.2224 80.3808 23.2224ZM80.3808 27.5299C78.9989 27.5299 78.5983 26.9617 78.5983 26.0847C78.5983 25.2219 79.0335 24.6536 80.3736 24.6536C81.8402 24.6536 82.1692 25.292 82.1692 26.0847C82.1692 26.9266 81.7698 27.5299 80.3808 27.5299Z" fill="#C9CED3"/>
<path d="M73.0779 28.8558V25.5936H69.4159V26.7792H71.3732C71.3592 26.8705 71.289 27.0458 71.1978 27.151C70.9944 27.3896 70.4541 27.6 69.7526 27.6C69.023 27.6 68.553 27.4106 68.3005 27.1159C68.1321 26.8985 68.0339 26.5898 68.0339 26.1268C68.0339 25.6427 68.1321 25.3131 68.3214 25.0956C68.5951 24.7869 69.0581 24.6536 69.7386 24.6536C70.349 24.6536 70.7698 24.7938 70.9663 24.9692C71.0926 25.0745 71.1907 25.2218 71.2118 25.32H73.0288C73.0219 25.1446 72.9657 24.864 72.8675 24.6606C72.4325 23.7767 71.4223 23.2505 69.7036 23.2505C68.2092 23.2505 67.206 23.7064 66.6519 24.394C66.287 24.864 66.1187 25.4533 66.1187 26.1127C66.1187 26.8424 66.315 27.4667 66.6378 27.8807C67.1849 28.5893 68.1601 28.9399 69.3317 28.9399C70.363 28.9399 71.0715 28.6944 71.5205 28.3227L71.5696 28.8558H73.0779Z" fill="#C9CED3"/>
<path d="M53.9676 25.5235C55.3917 25.6778 56.0021 26.1829 56.0021 27.1441C56.0021 28.3086 54.8656 28.9399 52.6276 28.9399C50.544 28.9399 49.6461 28.3507 49.3022 27.579C49.2251 27.3966 49.19 27.1721 49.1689 27.0317H51.1894C51.2035 27.1159 51.2526 27.2422 51.3227 27.3264C51.4911 27.5299 51.9611 27.6491 52.7609 27.6491C53.7922 27.6491 54.0377 27.5017 54.0377 27.2282C54.0377 26.9335 53.7852 26.8704 52.8521 26.7722C52.4803 26.7371 51.891 26.681 51.6455 26.66C49.8636 26.4985 49.2041 25.9444 49.2041 24.9973C49.2041 24.0151 50.3686 23.2645 52.4943 23.2645C54.3815 23.2645 55.2584 23.8257 55.6233 24.5273C55.7355 24.7377 55.8056 24.9762 55.8267 25.1446H53.8062C53.7992 25.0674 53.7711 24.9903 53.694 24.892C53.5396 24.6886 53.1467 24.5553 52.4452 24.5553C51.456 24.5553 51.1965 24.6746 51.1965 24.9271C51.1965 25.2078 51.5263 25.2709 52.6276 25.3902C53.0555 25.4252 53.7361 25.4953 53.9676 25.5235Z" fill="#C9CED3"/>
<path fill-rule="evenodd" clip-rule="evenodd" d="M33.8265 23.8187C34.1983 24.1133 34.4087 24.6115 34.4087 25.334C34.4087 25.9234 34.2614 26.3652 33.9808 26.6739C33.602 27.1089 32.9776 27.3054 32.1638 27.3124C31.9112 27.3194 29.7505 27.3124 29.7505 27.3124V28.8557H27.8633V23.3487H32.1357C32.8934 23.3487 33.4687 23.503 33.8265 23.8187ZM32.4304 25.7619C32.4865 25.6638 32.5146 25.5374 32.5146 25.362C32.5146 25.1797 32.4794 25.0253 32.4163 24.9411C32.2971 24.7658 32.0726 24.6816 31.7078 24.6816H29.7364V26.0285H31.6937C32.0866 26.0285 32.3181 25.9373 32.4304 25.7619Z" fill="#C9CED3"/>
<path fill-rule="evenodd" clip-rule="evenodd" d="M41.3122 23.9099C41.5649 24.1695 41.6841 24.5273 41.6841 25.0253C41.6841 25.4532 41.5788 25.8181 41.4034 26.0636C41.2071 26.3302 40.9054 26.5547 40.5335 26.6108L42.1962 28.8557H40.1056L38.7375 26.9125H37.0328V28.8557H35.1597V23.3487H39.5444C40.4143 23.3487 40.9825 23.5591 41.3122 23.9099ZM39.7969 25.4884C39.846 25.4042 39.86 25.2919 39.86 25.2007C39.86 25.0955 39.846 24.9832 39.7969 24.9131C39.6987 24.7307 39.5023 24.6816 39.2077 24.6816H37.0398V25.6848H39.2427C39.5444 25.6848 39.7268 25.6286 39.7969 25.4884Z" fill="#C9CED3"/>
<path d="M48.6006 28.8557V27.4878H44.651V26.7722H48.4393V25.4323H44.651V24.7237H48.5515V23.3487H42.7988V28.8557H48.6006Z" fill="#C9CED3"/>
<path d="M62.8288 24.7307V23.3487H56.2554V24.7307H58.5774V28.8557H60.4996V24.7307H62.8288Z" fill="#C9CED3"/>
<path d="M65.3565 23.3487V28.8557H63.4272V23.3487H65.3565Z" fill="#C9CED3"/>
<path d="M75.914 23.3487V28.8557H73.9844V23.3487H75.914Z" fill="#C9CED3"/>
<path d="M91.5215 23.3487V26.7301C91.5215 28.2174 90.1741 28.933 88.1329 28.933C86.2252 28.933 84.8564 28.2244 84.8564 26.5547V23.3487H86.7582V26.5547C86.7582 27.151 87.2697 27.5228 88.2104 27.5228C89.1082 27.5228 89.6412 27.137 89.6412 26.5617V23.3487H91.5215Z" fill="#C9CED3"/>
<path d="M99.0948 27.1441C99.0948 26.1829 98.4844 25.6778 97.0608 25.5235C96.8283 25.4953 96.1486 25.4252 95.7206 25.3902C94.6189 25.2709 94.2886 25.2078 94.2886 24.9271C94.2886 24.6746 94.5486 24.5553 95.5382 24.5553C96.2393 24.5553 96.6327 24.6886 96.7865 24.892C96.864 24.9903 96.8914 25.0674 96.8986 25.1446H98.9196C98.8981 24.9762 98.8278 24.7377 98.7157 24.5273C98.3508 23.8257 97.4745 23.2645 95.5871 23.2645C93.4612 23.2645 92.2963 24.0151 92.2963 24.9973C92.2963 25.9444 92.9568 26.4985 94.7381 26.66L94.8526 26.6701L95.0434 26.6875L95.9448 26.7722C96.8783 26.8704 97.1299 26.9335 97.1299 27.2282C97.1299 27.5017 96.8855 27.6491 95.8541 27.6491C95.0541 27.6491 94.5843 27.5299 94.415 27.3264C94.3459 27.2422 94.2958 27.1159 94.2827 27.0317H92.2617C92.2832 27.1721 92.3178 27.3966 92.3953 27.579C92.7386 28.3507 93.6365 28.9399 95.7206 28.9399C97.9586 28.9399 99.0948 28.3086 99.0948 27.1441Z" fill="#C9CED3"/>
<path fill-rule="evenodd" clip-rule="evenodd" d="M50.0373 30.9644C48.4597 30.9644 47.6299 31.7122 47.6299 32.811C47.6299 34.0511 48.5007 34.6803 50.0373 34.6803C51.7289 34.6803 52.4401 33.9508 52.4401 32.811C52.4401 31.6529 51.6377 30.9644 50.0373 30.9644ZM50.0373 33.7639C49.1391 33.7639 48.8792 33.3945 48.8792 32.8246C48.8792 32.2639 49.1619 31.8945 50.0327 31.8945C50.9856 31.8945 51.2 32.3094 51.2 32.8246C51.2 33.3717 50.9401 33.7639 50.0373 33.7639Z" fill="#C9CED3"/>
<path d="M41.2637 33.5131C41.2637 32.8885 40.8671 32.5601 39.9415 32.4598C39.791 32.4416 39.3488 32.3961 39.0706 32.3733C38.3547 32.2957 38.1405 32.2547 38.1405 32.0724C38.1405 31.9082 38.3092 31.8307 38.9521 31.8307C39.408 31.8307 39.6633 31.9172 39.7637 32.0495C39.8138 32.1134 39.832 32.1634 39.8367 32.2136H41.1498C41.136 32.1042 41.0905 31.9492 41.0175 31.8124C40.7804 31.3565 40.2105 30.9918 38.9839 30.9918C37.6025 30.9918 36.8456 31.4795 36.8456 32.1179C36.8456 32.7335 37.2742 33.0937 38.4322 33.1985C38.5919 33.2122 38.9749 33.2487 39.2165 33.2715C39.823 33.3352 39.987 33.3764 39.987 33.5679C39.987 33.7456 39.8275 33.8414 39.1573 33.8414C38.6374 33.8414 38.332 33.7639 38.2225 33.6316C38.177 33.5769 38.145 33.4949 38.136 33.4402H36.8228C36.8365 33.5314 36.8592 33.6772 36.9094 33.7958C37.1329 34.2973 37.7165 34.6803 39.0706 34.6803C40.5251 34.6803 41.2637 34.27 41.2637 33.5131Z" fill="#C9CED3"/>
<path fill-rule="evenodd" clip-rule="evenodd" d="M32.16 33.6134C32.16 33.8596 32.0916 34.1013 31.9548 34.2608C31.7451 34.5162 31.3529 34.6256 30.8469 34.6256H27.6689V31.0464H30.7602C31.2527 31.0464 31.5673 31.165 31.7406 31.3428C31.8956 31.4978 31.964 31.703 31.964 31.9355C31.964 32.1681 31.9093 32.3596 31.7908 32.5009C31.6949 32.6195 31.5308 32.7106 31.3576 32.7335C31.6129 32.7653 31.8545 32.893 31.9913 33.0708C32.1053 33.203 32.16 33.4037 32.16 33.6134ZM30.6235 32.3596C30.669 32.3094 30.6965 32.2364 30.6965 32.1499C30.6965 32.0632 30.669 31.9902 30.6098 31.9401C30.546 31.8808 30.4273 31.858 30.2541 31.858H28.8635V32.4416H30.2861C30.4411 32.4416 30.5597 32.4189 30.6235 32.3596ZM30.4183 33.8141C30.6325 33.8141 30.7602 33.7867 30.8332 33.7183C30.8788 33.6727 30.897 33.6044 30.897 33.5177C30.897 33.4265 30.8742 33.3582 30.8195 33.3034C30.7512 33.2442 30.6325 33.2167 30.432 33.2167H28.8635V33.8141H30.4183Z" fill="#C9CED3"/>
<path d="M36.4533 33.7366V34.6256H32.6826V31.0464H36.4213V31.9401H33.8863V32.4006H36.3484V33.2715H33.8863V33.7366H36.4533Z" fill="#C9CED3"/>
<path d="M45.7009 31.0464V31.9447H44.1871V34.6256H42.9379V31.9447H41.4287V31.0464H45.7009Z" fill="#C9CED3"/>
<path d="M56.6123 31.0464V31.9537H54.1821V32.4599H56.4983V33.3582H54.1821V34.6256H52.9556V31.0464H56.6123Z" fill="#C9CED3"/>
<path d="M62.7897 31.9447V31.0464H58.5176V31.9447H60.0268V34.6256H61.2761V31.9447H62.7897Z" fill="#C9CED3"/>
<path d="M67.4511 31.0464V34.6256H66.2291V33.3262H64.3962V34.6256H63.1743V31.0464H64.3962V32.3504H66.2291V31.0464H67.4511Z" fill="#C9CED3"/>
<path d="M71.9455 34.6256V33.7366H69.3784V33.2715H71.8406V32.4006H69.3784V31.9401H71.9135V31.0464H68.1748V34.6256H71.9455Z" fill="#C9CED3"/>
<path d="M79.5044 31.0464H80.6848L79.3769 34.6256H78.0367C78.0367 34.6256 77.3201 32.4873 77.3154 32.4279C77.3118 32.4873 76.5904 34.6256 76.5904 34.6256H75.2551L73.9146 31.0464H75.2408C75.2408 31.0464 76.0169 33.2988 76.0169 33.3535C76.0169 33.2988 76.7323 31.0464 76.7323 31.0464H78.0141C78.0141 31.0464 78.7342 33.2988 78.7342 33.3535C78.7342 33.2988 79.5044 31.0464 79.5044 31.0464Z" fill="#C9CED3"/>
<path fill-rule="evenodd" clip-rule="evenodd" d="M83.0264 30.9644C81.449 30.9644 80.6191 31.7122 80.6191 32.811C80.6191 34.0511 81.4895 34.6803 83.0264 34.6803C84.7183 34.6803 85.4289 33.9508 85.4289 32.811C85.4289 31.6529 84.6265 30.9644 83.0264 30.9644ZM83.0264 33.7639C82.1286 33.7639 81.8687 33.3945 81.8687 32.8246C81.8687 32.2639 82.1513 31.8945 83.0216 31.8945C83.9755 31.8945 84.1889 32.3094 84.1889 32.8246C84.1889 33.3717 83.929 33.7639 83.0264 33.7639Z" fill="#C9CED3"/>
<path fill-rule="evenodd" clip-rule="evenodd" d="M89.9443 31.4112C90.1077 31.5799 90.1852 31.8124 90.1852 32.1362C90.1852 32.4143 90.1172 32.6514 90.0027 32.811C89.8752 32.9842 89.6796 33.1302 89.4376 33.1665L90.5178 34.6256H89.1598L88.2703 33.3627H87.1627V34.6256H85.9453V31.0464H88.7949C89.3601 31.0464 89.7297 31.1833 89.9443 31.4112ZM88.9595 32.4371C88.9905 32.3824 89 32.3094 89 32.2501C89 32.1817 88.9905 32.1089 88.9595 32.0632C88.8951 31.9447 88.7675 31.9127 88.5755 31.9127H87.1674V32.5648H88.5982C88.7949 32.5648 88.913 32.5283 88.9595 32.4371Z" fill="#C9CED3"/>
<path d="M94.3244 34.6256V33.6727H92.1449V31.0464H90.9097V34.6256H94.3244Z" fill="#C9CED3"/>
<path fill-rule="evenodd" clip-rule="evenodd" d="M99.1596 32.7699C99.1596 33.3262 99.1048 33.6271 98.9414 33.9098C98.6946 34.3611 98.2069 34.6256 97.3449 34.6256H94.8101V31.0464H97.3175C98.1748 31.0464 98.6815 31.2881 98.9319 31.703C99.1095 31.9812 99.1596 32.2774 99.1596 32.7699ZM97.1124 33.7457C97.4999 33.7457 97.7193 33.6544 97.8516 33.4539C97.9339 33.3307 97.9566 33.0435 97.9566 32.7928C97.9518 32.5648 97.9244 32.3231 97.8516 32.2137C97.7098 31.9994 97.4963 31.9219 97.1219 31.9219H96.0322V33.7457H97.1124Z" fill="#C9CED3"/>
<path d="M50.2496 52.0329H48.3602C48.3602 52.0329 47.1274 55.6366 47.1274 55.7242C47.1274 55.6366 45.9748 52.0329 45.9748 52.0329H43.9249C43.9249 52.0329 42.7795 55.6366 42.7795 55.7242C42.7795 55.6366 41.5394 52.0329 41.5394 52.0329H39.4165L41.5612 57.7594H43.6987C43.6987 57.7594 44.8513 54.3381 44.8586 54.2433C44.8659 54.3381 46.0112 57.7594 46.0112 57.7594H48.1559L50.2496 52.0329Z" fill="#C9CED3"/>
<path d="M52.8353 57.7594V52.0329H50.8291V57.7594H52.8353Z" fill="#C9CED3"/>
<path d="M60.6383 52.0329V57.7594H58.6831L55.8454 54.5716V57.7594H53.9634V52.0329H56.0205L58.7706 55.1479V52.0329H60.6383Z" fill="#C9CED3"/>
<path d="M68.4532 57.7594V52.0329H66.5857V55.1479L63.8355 52.0329H61.7783V57.7594H63.6604V54.5716L66.4982 57.7594H68.4532Z" fill="#C9CED3"/>
<path d="M75.6268 56.3369V57.7594H69.5933V52.0329H75.5755V53.4627H71.5192V54.1996H75.4587V55.5929H71.5192V56.3369H75.6268Z" fill="#C9CED3"/>
<path fill-rule="evenodd" clip-rule="evenodd" d="M83.3375 53.7764C83.3375 53.2585 83.2135 52.8865 82.9511 52.6165C82.6078 52.2518 82.0176 52.0329 81.1126 52.0329H76.5532V57.7594H78.5014V55.7387H80.2744L81.6968 57.7594H83.8704L82.1416 55.4251C82.5279 55.3667 82.8415 55.1333 83.0465 54.856C83.2278 54.6008 83.3375 54.2214 83.3375 53.7764ZM81.4405 53.9588C81.4405 54.0536 81.4262 54.1703 81.3749 54.2579C81.3022 54.4038 81.1126 54.4621 80.799 54.4621H78.5086V53.419H80.7621C81.0685 53.419 81.2736 53.47 81.3749 53.6597C81.4262 53.7327 81.4405 53.8494 81.4405 53.9588Z" fill="#C9CED3"/>
<path d="M44.4248 41.9297L43.6337 39.4948L42.8425 41.9297H40.2822L42.3535 43.4346L41.5624 45.8695L43.6337 44.3647L45.7048 45.8695L44.9137 43.4346L46.985 41.9297H44.4248Z" fill="#C9CED3"/>
<path d="M52.7674 39.4933L53.5747 41.9282H56.1872L54.0737 43.4331L54.881 45.868L52.7674 44.3631L50.6539 45.868L51.4613 43.4331L49.3477 41.9282H51.9601L52.7674 39.4933Z" fill="#C9CED3"/>
<path d="M62.6353 41.9282L61.8281 39.4933L61.0208 41.9282H58.4082L60.5218 43.4331L59.7145 45.868L61.8281 44.3631L63.9416 45.868L63.1343 43.4331L65.2479 41.9282H62.6353Z" fill="#C9CED3"/>
<path d="M70.8895 39.4933L71.6968 41.9282H74.3093L72.1958 43.4331L73.0031 45.868L70.8895 44.3631L68.776 45.868L69.5833 43.4331L67.4697 41.9282H70.0823L70.8895 39.4933Z" fill="#C9CED3"/>
<path d="M80.8147 41.9282L80.023 39.4933L79.2313 41.9282H76.6714L78.7424 43.4331L77.9519 45.868L80.023 44.3631L82.094 45.868L81.3035 43.4331L83.3745 41.9282H80.8147Z" fill="#C9CED3"/>
<path d="M114.03 13.3806C114.787 11.4556 114.458 9.24181 113.76 7.38014C113.026 5.4213 111.748 3.46747 109.838 2.43719C109.742 4.50168 110.373 6.54112 111.062 8.38025C111.682 10.0343 112.442 11.7966 113.697 13.1645C113.89 14.2009 114.038 15.2344 114.142 16.2631C113.726 15.1765 113.052 14.1862 112.21 13.3897C111.126 12.3638 109.513 11.5723 108 12.0404C108.444 13.7133 109.454 15.3172 110.651 16.4423C111.593 17.3278 112.836 18.4624 114.3 18.5071C114.361 20.0215 114.327 21.522 114.201 23.0021C113.995 21.919 113.553 20.8991 112.913 20.1396C112.034 19.0959 110.731 17.8209 109.067 18.0342C109.158 19.7276 109.834 21.4625 110.775 22.7662C111.521 23.8022 112.508 25.1226 113.909 25.4638C113.685 26.9178 113.373 28.3477 112.976 29.747C112.972 28.6756 112.736 27.6239 112.266 26.7803C111.605 25.5909 110.573 24.1073 108.908 23.9913C108.663 25.6525 108.995 27.4685 109.662 28.9129C110.195 30.0674 110.907 31.5396 112.203 32.1488C111.658 33.6547 111.014 35.1186 110.275 36.5314C110.535 35.3135 110.524 34.0302 110.218 32.8755C109.795 31.284 108.745 29.6122 107.059 29.1271C106.463 30.8843 106.546 32.845 106.893 34.6308C107.178 36.1013 107.737 37.8282 108.991 38.7834C108.171 40.1077 107.263 41.3786 106.273 42.5878C106.806 41.4019 107.069 40.1048 106.927 38.9174C106.721 37.1881 106.236 35.3384 104.47 34.4168C103.467 36.1456 103.235 38.0852 103.15 40.0008C103.081 41.5497 103.304 43.46 104.38 44.72C103.196 45.9497 101.921 47.1007 100.558 48.1621C101.438 47.0328 102.054 45.7078 102.184 44.3975C102.369 42.5459 102.28 40.5078 100.635 39.1489C99.2308 40.6167 98.3914 42.7782 97.9813 44.6556C97.6176 46.3154 97.2385 48.2802 98.1029 49.9138C96.3681 51.0467 94.5152 52.0448 92.5563 52.8902C93.9346 51.9079 95.0625 50.5603 95.6002 49.1689C96.3049 47.3453 96.7401 45.1722 95.3689 43.3459C93.5304 44.5233 92.1795 46.532 91.1148 48.3642C90.2015 49.9363 89.256 52.1062 89.7257 53.9785C88.6407 54.3465 87.5283 54.6696 86.3896 54.9452L86.4576 55.2248C87.5998 54.9481 88.717 54.6239 89.8056 54.2549C90.5687 56.5091 93.0678 57.254 95.0887 57.5827C97.9681 58.0512 101.397 57.1436 103.856 55.315C102.557 53.4813 99.9104 53.2953 97.9145 53.155L97.8883 53.1532C95.7016 52.9995 93.336 53.2048 91.1374 53.7763C93.677 52.8092 96.0545 51.5931 98.2471 50.1635L98.277 50.2112C99.4776 52.162 101.891 52.2383 103.784 52.1151C106.354 51.9479 109.319 50.3861 111.035 48.2272C109.42 46.811 107.037 47.2072 105.189 47.5142L105.179 47.5158C103.118 47.8585 100.865 48.606 98.9745 49.757C99.1545 49.6153 99.3298 49.4654 99.5015 49.3081C101.34 47.9972 103.035 46.5308 104.575 44.9319C104.596 44.9532 104.618 44.9742 104.639 44.9951C106.137 46.4891 108.31 46.095 110.008 45.606C112.285 44.9502 114.646 42.9718 115.778 40.7006C114.024 39.7182 111.928 40.5276 110.298 41.1681C108.506 41.8716 106.611 42.9972 105.154 44.4324C105.304 44.2428 105.449 44.0447 105.585 43.8396C106.938 42.3114 108.156 40.675 109.227 38.9485L109.274 38.9773L109.286 38.9848C110.977 40.0736 112.895 39.283 114.414 38.5053C116.475 37.4503 118.132 35.1315 118.848 32.8511C117.019 32.2653 115.212 33.415 113.808 34.3256C112.27 35.322 110.713 36.7432 109.644 38.3732C109.723 38.2124 109.797 38.0478 109.865 37.8803C110.892 36.0891 111.763 34.2089 112.469 32.2584L112.506 32.2708L112.512 32.2731C114.051 32.8558 115.765 31.9465 116.882 30.9492C118.434 29.5623 119.53 27.4301 119.786 25.347C118.181 25.1391 116.668 26.381 115.635 27.4401C114.445 28.6601 113.375 30.102 112.718 31.7037C112.767 31.5289 112.809 31.3514 112.843 31.1719C113.441 29.3396 113.894 27.4499 114.192 25.5181L114.237 25.5241C115.859 25.7866 117.359 24.5527 118.255 23.355C119.517 21.6697 120.167 19.3372 120.003 17.223C118.383 17.3365 117.148 18.8789 116.348 20.1268C115.42 21.5719 114.651 23.2077 114.315 24.919C114.325 24.7821 114.331 24.6445 114.334 24.5065C114.581 22.54 114.669 20.5332 114.588 18.5018C116.244 18.4437 117.471 16.9061 118.103 15.5426C119.005 13.5923 119.151 11.1269 118.549 9.04926C116.971 9.49196 116.091 11.301 115.573 12.6938C114.974 14.2996 114.557 16.0512 114.553 17.7924C114.467 16.3316 114.293 14.8591 114.03 13.3806Z" fill="#C9CED3"/>
</svg>
